<mxfile host="app.diagrams.net" modified="2023-12-21T03:11:30.918Z" agent="Mozilla/5.0 (X11; Linux x86_64) AppleWebKit/537.36 (KHTML, like Gecko) Chrome/114.0.0.0 Safari/537.36" etag="IMsnScfeEKwF0r58OYo5" version="22.1.11" type="google">
  <diagram id="Auntro9jrCzOKTlbSB1T" name="Page-1">
    <mxGraphModel grid="1" page="1" gridSize="10" guides="1" tooltips="1" connect="1" arrows="1" fold="1" pageScale="1" pageWidth="850" pageHeight="1100" math="0" shadow="0">
      <root>
        <mxCell id="0" />
        <mxCell id="1" parent="0" />
        <mxCell id="RBWeou6Ohkpq0n6bIXao-404" value="" style="rounded=0;whiteSpace=wrap;html=1;strokeColor=#d6b656;fillColor=#fff2cc;" vertex="1" parent="1">
          <mxGeometry x="111.25" y="922.2600000000002" width="5" height="33.75" as="geometry" />
        </mxCell>
        <mxCell id="RBWeou6Ohkpq0n6bIXao-405" value="" style="rounded=0;whiteSpace=wrap;html=1;strokeColor=#d6b656;fillColor=#fff2cc;" vertex="1" parent="1">
          <mxGeometry x="125.25" y="922.2600000000002" width="5" height="33.75" as="geometry" />
        </mxCell>
        <mxCell id="RBWeou6Ohkpq0n6bIXao-406" value="" style="rounded=0;whiteSpace=wrap;html=1;strokeColor=#d6b656;fillColor=#fff2cc;" vertex="1" parent="1">
          <mxGeometry x="139.25" y="922.2600000000002" width="5" height="33.75" as="geometry" />
        </mxCell>
        <mxCell id="RBWeou6Ohkpq0n6bIXao-407" value="" style="rounded=0;whiteSpace=wrap;html=1;strokeColor=#d6b656;fillColor=#fff2cc;" vertex="1" parent="1">
          <mxGeometry x="153.30999999999995" y="922.2600000000002" width="5" height="33.75" as="geometry" />
        </mxCell>
        <mxCell id="RBWeou6Ohkpq0n6bIXao-408" value="" style="rounded=0;whiteSpace=wrap;html=1;strokeColor=#d6b656;fillColor=#fff2cc;" vertex="1" parent="1">
          <mxGeometry x="166.30999999999995" y="922.2600000000002" width="5" height="33.75" as="geometry" />
        </mxCell>
        <mxCell id="RBWeou6Ohkpq0n6bIXao-409" value="" style="rounded=0;whiteSpace=wrap;html=1;strokeColor=#d6b656;fillColor=#fff2cc;" vertex="1" parent="1">
          <mxGeometry x="180.3100000000004" y="922.2600000000002" width="5" height="33.75" as="geometry" />
        </mxCell>
        <mxCell id="RBWeou6Ohkpq0n6bIXao-410" value="" style="rounded=0;whiteSpace=wrap;html=1;strokeColor=#d6b656;fillColor=#fff2cc;" vertex="1" parent="1">
          <mxGeometry x="194.3100000000004" y="922.2600000000002" width="5" height="33.75" as="geometry" />
        </mxCell>
        <mxCell id="RBWeou6Ohkpq0n6bIXao-411" value="" style="rounded=0;whiteSpace=wrap;html=1;strokeColor=#d6b656;fillColor=#fff2cc;" vertex="1" parent="1">
          <mxGeometry x="208.3100000000004" y="922.2600000000002" width="5" height="33.75" as="geometry" />
        </mxCell>
        <mxCell id="RBWeou6Ohkpq0n6bIXao-412" value="" style="rounded=0;whiteSpace=wrap;html=1;strokeColor=#d6b656;fillColor=#fff2cc;" vertex="1" parent="1">
          <mxGeometry x="222.3100000000004" y="922.2600000000002" width="5" height="33.75" as="geometry" />
        </mxCell>
        <mxCell id="RBWeou6Ohkpq0n6bIXao-413" value="" style="rounded=0;whiteSpace=wrap;html=1;strokeColor=#d6b656;fillColor=#fff2cc;" vertex="1" parent="1">
          <mxGeometry x="235.75" y="922.2600000000002" width="5" height="33.75" as="geometry" />
        </mxCell>
        <mxCell id="RBWeou6Ohkpq0n6bIXao-414" value="" style="rounded=0;whiteSpace=wrap;html=1;strokeColor=#d6b656;fillColor=#fff2cc;" vertex="1" parent="1">
          <mxGeometry x="248.74999999999997" y="922.2600000000002" width="5" height="33.75" as="geometry" />
        </mxCell>
        <mxCell id="RBWeou6Ohkpq0n6bIXao-415" value="" style="rounded=0;whiteSpace=wrap;html=1;strokeColor=#d6b656;fillColor=#fff2cc;" vertex="1" parent="1">
          <mxGeometry x="262.75" y="922.2600000000002" width="5" height="33.75" as="geometry" />
        </mxCell>
        <mxCell id="RBWeou6Ohkpq0n6bIXao-416" value="" style="rounded=0;whiteSpace=wrap;html=1;strokeColor=#d6b656;fillColor=#fff2cc;" vertex="1" parent="1">
          <mxGeometry x="276.75" y="922.2600000000002" width="5" height="33.75" as="geometry" />
        </mxCell>
        <mxCell id="RBWeou6Ohkpq0n6bIXao-417" value="" style="rounded=0;whiteSpace=wrap;html=1;strokeColor=#d6b656;fillColor=#fff2cc;" vertex="1" parent="1">
          <mxGeometry x="290.75" y="922.2600000000002" width="5" height="33.75" as="geometry" />
        </mxCell>
        <mxCell id="RBWeou6Ohkpq0n6bIXao-418" value="" style="rounded=0;whiteSpace=wrap;html=1;strokeColor=#d6b656;fillColor=#fff2cc;" vertex="1" parent="1">
          <mxGeometry x="303.75" y="922.2600000000002" width="5" height="33.75" as="geometry" />
        </mxCell>
        <mxCell id="RBWeou6Ohkpq0n6bIXao-419" value="" style="rounded=0;whiteSpace=wrap;html=1;verticalAlign=top;strokeColor=#4D4D4D;fontColor=#4D4D4D;fillColor=#CCCCCC;" vertex="1" parent="1">
          <mxGeometry x="335" y="940.0100000000002" width="40" height="50" as="geometry" />
        </mxCell>
        <mxCell id="RBWeou6Ohkpq0n6bIXao-420" value="" style="rounded=0;whiteSpace=wrap;html=1;strokeColor=#666666;fontColor=#333333;fillColor=#CCCCCC;" vertex="1" parent="1">
          <mxGeometry y="940.0100000000002" width="30" height="30" as="geometry" />
        </mxCell>
        <mxCell id="RBWeou6Ohkpq0n6bIXao-421" value="" style="rounded=0;whiteSpace=wrap;html=1;strokeColor=#82b366;fillColor=#d5e8d4;" vertex="1" parent="1">
          <mxGeometry x="100" y="940.0100000000002" width="220" height="30" as="geometry" />
        </mxCell>
        <mxCell id="RBWeou6Ohkpq0n6bIXao-422" value="" style="rounded=0;whiteSpace=wrap;html=1;strokeColor=#b85450;fillColor=#f8cecc;" vertex="1" parent="1">
          <mxGeometry x="-40" y="950.0100000000002" width="450" height="340" as="geometry" />
        </mxCell>
        <mxCell id="RBWeou6Ohkpq0n6bIXao-423" value="" style="ellipse;whiteSpace=wrap;html=1;aspect=fixed;strokeColor=#4D4D4D;fontColor=#4D4D4D;" vertex="1" parent="1">
          <mxGeometry x="-30" y="955.0100000000002" width="20" height="20" as="geometry" />
        </mxCell>
        <mxCell id="RBWeou6Ohkpq0n6bIXao-424" value="" style="ellipse;whiteSpace=wrap;html=1;aspect=fixed;strokeColor=#4D4D4D;fontColor=#4D4D4D;" vertex="1" parent="1">
          <mxGeometry x="-30" y="1265.0100000000002" width="20" height="20" as="geometry" />
        </mxCell>
        <mxCell id="RBWeou6Ohkpq0n6bIXao-425" value="" style="ellipse;whiteSpace=wrap;html=1;aspect=fixed;strokeColor=#4D4D4D;fontColor=#4D4D4D;" vertex="1" parent="1">
          <mxGeometry x="380" y="1265.0100000000002" width="20" height="20" as="geometry" />
        </mxCell>
        <mxCell id="RBWeou6Ohkpq0n6bIXao-426" value="" style="ellipse;whiteSpace=wrap;html=1;aspect=fixed;strokeColor=#4D4D4D;fontColor=#4D4D4D;" vertex="1" parent="1">
          <mxGeometry x="380" y="955.0100000000002" width="20" height="20" as="geometry" />
        </mxCell>
        <mxCell id="RBWeou6Ohkpq0n6bIXao-427" value="" style="rounded=0;whiteSpace=wrap;html=1;strokeColor=#000000;fontColor=#4D4D4D;fillColor=#666666;" vertex="1" parent="1">
          <mxGeometry x="350" y="1035.0100000000002" width="10" height="20" as="geometry" />
        </mxCell>
        <mxCell id="RBWeou6Ohkpq0n6bIXao-428" value="" style="rounded=0;whiteSpace=wrap;html=1;strokeColor=#000000;fontColor=#4D4D4D;fillColor=#666666;" vertex="1" parent="1">
          <mxGeometry x="280" y="1035.0100000000002" width="10" height="20" as="geometry" />
        </mxCell>
        <mxCell id="RBWeou6Ohkpq0n6bIXao-429" value="" style="rounded=0;whiteSpace=wrap;html=1;strokeColor=#000000;fontColor=#4D4D4D;fillColor=#666666;" vertex="1" parent="1">
          <mxGeometry x="370" y="1035.0100000000002" width="10" height="20" as="geometry" />
        </mxCell>
        <mxCell id="RBWeou6Ohkpq0n6bIXao-430" value="&lt;span&gt;&lt;font color=&quot;#e6e6e6&quot;&gt;M.2 M-KEY&lt;/font&gt;&lt;/span&gt;" style="rounded=0;whiteSpace=wrap;html=1;strokeColor=#000000;fontColor=#4D4D4D;fillColor=#666666;" vertex="1" parent="1">
          <mxGeometry x="280" y="1025.0100000000002" width="100" height="20" as="geometry" />
        </mxCell>
        <mxCell id="RBWeou6Ohkpq0n6bIXao-431" value="NIC" style="rounded=0;whiteSpace=wrap;html=1;strokeColor=#4D4D4D;fontColor=#4D4D4D;fillColor=#CCCCCC;" vertex="1" parent="1">
          <mxGeometry x="310" y="1230.0100000000002" width="60" height="60" as="geometry" />
        </mxCell>
        <mxCell id="RBWeou6Ohkpq0n6bIXao-432" value="&lt;div&gt;USB3&lt;/div&gt;x2" style="rounded=0;whiteSpace=wrap;html=1;strokeColor=#4D4D4D;fontColor=#4D4D4D;fillColor=#CCCCCC;" vertex="1" parent="1">
          <mxGeometry x="170" y="1230.0100000000002" width="60" height="60" as="geometry" />
        </mxCell>
        <mxCell id="RBWeou6Ohkpq0n6bIXao-433" value="&lt;div&gt;USB3&lt;/div&gt;&lt;div&gt;x2&lt;br&gt;&lt;/div&gt;" style="rounded=0;whiteSpace=wrap;html=1;strokeColor=#4D4D4D;fontColor=#4D4D4D;fillColor=#CCCCCC;" vertex="1" parent="1">
          <mxGeometry x="240" y="1230.0100000000002" width="60" height="60" as="geometry" />
        </mxCell>
        <mxCell id="RBWeou6Ohkpq0n6bIXao-434" value="HDMI" style="rounded=0;whiteSpace=wrap;html=1;strokeColor=#4D4D4D;fontColor=#4D4D4D;fillColor=#CCCCCC;" vertex="1" parent="1">
          <mxGeometry x="100" y="1260.0100000000002" width="60" height="30" as="geometry" />
        </mxCell>
        <mxCell id="RBWeou6Ohkpq0n6bIXao-435" value="&lt;font color=&quot;#ffffff&quot;&gt;SW3&lt;/font&gt;" style="rounded=0;whiteSpace=wrap;html=1;strokeColor=#999999;fontColor=#4D4D4D;fillColor=#4D4D4D;" vertex="1" parent="1">
          <mxGeometry x="50" y="1261.2600000000002" width="40" height="20" as="geometry" />
        </mxCell>
        <mxCell id="RBWeou6Ohkpq0n6bIXao-436" value="" style="rounded=0;whiteSpace=wrap;html=1;strokeColor=#4D4D4D;fontColor=#4D4D4D;fillColor=#666666;" vertex="1" parent="1">
          <mxGeometry x="40" y="940.0100000000002" width="30" height="50" as="geometry" />
        </mxCell>
        <mxCell id="RBWeou6Ohkpq0n6bIXao-437" value="SW10" style="shape=tee;whiteSpace=wrap;html=1;dx=20;dy=30;verticalAlign=top;strokeColor=#4D4D4D;fontColor=#4D4D4D;" vertex="1" parent="1">
          <mxGeometry y="1260.0100000000002" width="40" height="41.25" as="geometry" />
        </mxCell>
        <mxCell id="RBWeou6Ohkpq0n6bIXao-438" value="&lt;div&gt;Power&lt;/div&gt;&lt;div&gt;Jack&lt;br&gt;&lt;/div&gt;" style="text;html=1;strokeColor=none;fillColor=none;align=center;verticalAlign=middle;whiteSpace=wrap;rounded=0;fontColor=#4D4D4D;" vertex="1" parent="1">
          <mxGeometry x="25" y="990.0100000000002" width="60" height="30" as="geometry" />
        </mxCell>
        <mxCell id="RBWeou6Ohkpq0n6bIXao-439" value="" style="rounded=0;whiteSpace=wrap;html=1;strokeColor=#4D4D4D;fontColor=#4D4D4D;fillColor=#4D4D4D;" vertex="1" parent="1">
          <mxGeometry x="60" y="1282.2600000000002" width="20" height="5" as="geometry" />
        </mxCell>
        <mxCell id="RBWeou6Ohkpq0n6bIXao-440" value="" style="group" connectable="0" vertex="1" parent="1">
          <mxGeometry x="65" y="1214.2600000000002" width="13" height="22" as="geometry" />
        </mxCell>
        <mxCell id="RBWeou6Ohkpq0n6bIXao-441" value="" style="rounded=1;whiteSpace=wrap;html=1;labelBackgroundColor=none;fontSize=16;fontColor=#000000;strokeColor=default;strokeWidth=1;fillColor=#4D4D4D;gradientColor=none;arcSize=22;" vertex="1" parent="RBWeou6Ohkpq0n6bIXao-440">
          <mxGeometry width="13" height="11" as="geometry" />
        </mxCell>
        <mxCell id="RBWeou6Ohkpq0n6bIXao-442" value="" style="rounded=1;whiteSpace=wrap;html=1;labelBackgroundColor=none;fontSize=16;fontColor=#000000;strokeColor=default;strokeWidth=1;fillColor=#4D4D4D;gradientColor=none;arcSize=22;" vertex="1" parent="RBWeou6Ohkpq0n6bIXao-440">
          <mxGeometry y="11" width="13" height="11" as="geometry" />
        </mxCell>
        <mxCell id="RBWeou6Ohkpq0n6bIXao-443" value="" style="rounded=0;whiteSpace=wrap;html=1;labelBackgroundColor=none;fontSize=16;strokeColor=#B3B3B3;strokeWidth=0.5;fillColor=#f5f5f5;fontColor=#333333;" vertex="1" parent="RBWeou6Ohkpq0n6bIXao-440">
          <mxGeometry x="4" y="3" width="5" height="5" as="geometry" />
        </mxCell>
        <mxCell id="RBWeou6Ohkpq0n6bIXao-444" value="" style="rounded=0;whiteSpace=wrap;html=1;labelBackgroundColor=none;fontSize=16;strokeColor=#B3B3B3;strokeWidth=0.5;fillColor=#FFFFFF;" vertex="1" parent="RBWeou6Ohkpq0n6bIXao-440">
          <mxGeometry x="4" y="14" width="5" height="5" as="geometry" />
        </mxCell>
        <mxCell id="RBWeou6Ohkpq0n6bIXao-452" value="&lt;div style=&quot;font-size: 9px;&quot;&gt;&lt;font&gt;&lt;span&gt;GND&lt;/span&gt;&lt;/font&gt;-CAN&lt;/div&gt;" style="text;html=1;strokeColor=none;fillColor=none;align=left;verticalAlign=middle;whiteSpace=wrap;rounded=0;rotation=-90;fontColor=#000000;fontStyle=1" vertex="1" parent="1">
          <mxGeometry x="137.51" y="883.04" width="62.97" height="15" as="geometry" />
        </mxCell>
        <mxCell id="RBWeou6Ohkpq0n6bIXao-453" value="&lt;div style=&quot;font-size: 9px;&quot;&gt;&lt;font color=&quot;#000000&quot; style=&quot;font-size: 9px;&quot;&gt;&lt;b&gt;GND&lt;/b&gt;&lt;/font&gt;&lt;/div&gt;" style="text;html=1;strokeColor=none;fillColor=none;align=left;verticalAlign=middle;whiteSpace=wrap;rounded=0;rotation=-90;fontColor=#4D4D4D;" vertex="1" parent="1">
          <mxGeometry x="294.9300000000003" y="902.9800000000002" width="22.63" height="15" as="geometry" />
        </mxCell>
        <mxCell id="RBWeou6Ohkpq0n6bIXao-454" value="&lt;div style=&quot;font-size: 9px;&quot;&gt;&lt;b style=&quot;&quot;&gt;&lt;font color=&quot;#000000&quot;&gt;GPIO4&lt;/font&gt;&lt;/b&gt;&lt;br&gt;&lt;/div&gt;" style="text;html=1;strokeColor=none;fillColor=none;align=left;verticalAlign=middle;whiteSpace=wrap;rounded=0;rotation=-90;fontColor=#4D4D4D;" vertex="1" parent="1">
          <mxGeometry x="281.9300000000003" y="902.9800000000002" width="22.63" height="15" as="geometry" />
        </mxCell>
        <mxCell id="RBWeou6Ohkpq0n6bIXao-455" value="&lt;div style=&quot;font-size: 9px;&quot;&gt;&lt;b style=&quot;&quot;&gt;&lt;font color=&quot;#000000&quot;&gt;GPIO3&lt;/font&gt;&lt;/b&gt;&lt;br&gt;&lt;/div&gt;" style="text;html=1;strokeColor=none;fillColor=none;align=left;verticalAlign=middle;whiteSpace=wrap;rounded=0;rotation=-90;fontColor=#4D4D4D;" vertex="1" parent="1">
          <mxGeometry x="267.9300000000003" y="902.9800000000002" width="22.63" height="15" as="geometry" />
        </mxCell>
        <mxCell id="RBWeou6Ohkpq0n6bIXao-456" value="&lt;div style=&quot;font-size: 9px;&quot;&gt;&lt;b style=&quot;&quot;&gt;&lt;font color=&quot;#000000&quot;&gt;GPIO2&lt;/font&gt;&lt;/b&gt;&lt;/div&gt;" style="text;html=1;strokeColor=none;fillColor=none;align=left;verticalAlign=middle;whiteSpace=wrap;rounded=0;rotation=-90;fontColor=#4D4D4D;" vertex="1" parent="1">
          <mxGeometry x="253.93000000000026" y="902.9800000000002" width="22.63" height="15" as="geometry" />
        </mxCell>
        <mxCell id="RBWeou6Ohkpq0n6bIXao-457" value="&lt;div style=&quot;font-size: 9px;&quot;&gt;&lt;b style=&quot;&quot;&gt;&lt;font color=&quot;#000000&quot;&gt;GPIO1&lt;/font&gt;&lt;/b&gt;&lt;/div&gt;" style="text;html=1;strokeColor=none;fillColor=none;align=left;verticalAlign=middle;whiteSpace=wrap;rounded=0;rotation=-90;fontColor=#4D4D4D;" vertex="1" parent="1">
          <mxGeometry x="239.9399999999996" y="902.9800000000002" width="22.63" height="15" as="geometry" />
        </mxCell>
        <mxCell id="RBWeou6Ohkpq0n6bIXao-458" value="&lt;div style=&quot;font-size: 9px;&quot;&gt;&lt;b style=&quot;&quot;&gt;&lt;font color=&quot;#000000&quot;&gt;GPIO0&lt;/font&gt;&lt;/b&gt;&lt;/div&gt;" style="text;html=1;strokeColor=none;fillColor=none;align=left;verticalAlign=middle;whiteSpace=wrap;rounded=0;rotation=-90;fontColor=#4D4D4D;" vertex="1" parent="1">
          <mxGeometry x="226.9300000000003" y="902.9800000000002" width="22.63" height="15" as="geometry" />
        </mxCell>
        <mxCell id="RBWeou6Ohkpq0n6bIXao-459" value="&lt;div style=&quot;font-size: 9px;&quot;&gt;&lt;font color=&quot;#000000&quot;&gt;&lt;b&gt;Debug UART-RX&lt;/b&gt;&lt;/font&gt;&lt;br&gt;&lt;/div&gt;" style="text;html=1;strokeColor=none;fillColor=none;align=left;verticalAlign=middle;whiteSpace=wrap;rounded=0;rotation=-90;fontColor=#4D4D4D;" vertex="1" parent="1">
          <mxGeometry x="185.78000000000065" y="874.5500000000002" width="78.94" height="15" as="geometry" />
        </mxCell>
        <mxCell id="RBWeou6Ohkpq0n6bIXao-460" value="&lt;div style=&quot;font-size: 9px;&quot;&gt;&lt;font color=&quot;#000000&quot;&gt;&lt;b&gt;Debug UART-&lt;span style=&quot;background-color: initial;&quot;&gt;TX&lt;/span&gt;&lt;/b&gt;&lt;/font&gt;&lt;/div&gt;" style="text;html=1;strokeColor=none;fillColor=none;align=left;verticalAlign=middle;whiteSpace=wrap;rounded=0;rotation=-90;fontColor=#4D4D4D;" vertex="1" parent="1">
          <mxGeometry x="174.48999999999978" y="878.5500000000002" width="71.51" height="15" as="geometry" />
        </mxCell>
        <mxCell id="RBWeou6Ohkpq0n6bIXao-461" value="&lt;div style=&quot;font-size: 9px;&quot;&gt;&lt;div&gt;&lt;b style=&quot;&quot;&gt;&lt;font color=&quot;#000000&quot;&gt;I2C-SCK&lt;/font&gt;&lt;/b&gt;&lt;/div&gt;&lt;/div&gt;" style="text;html=1;strokeColor=none;fillColor=none;align=left;verticalAlign=middle;whiteSpace=wrap;rounded=0;rotation=-90;fontColor=#4D4D4D;" vertex="1" parent="1">
          <mxGeometry x="175" y="892.5500000000002" width="43.94" height="15" as="geometry" />
        </mxCell>
        <mxCell id="RBWeou6Ohkpq0n6bIXao-462" value="&lt;div style=&quot;font-size: 9px;&quot;&gt;&lt;b style=&quot;&quot;&gt;&lt;font color=&quot;#000000&quot;&gt;I2C-SDA&lt;/font&gt;&lt;/b&gt;&lt;br&gt;&lt;/div&gt;" style="text;html=1;strokeColor=none;fillColor=none;align=left;verticalAlign=middle;whiteSpace=wrap;rounded=0;rotation=-90;fontColor=#4D4D4D;" vertex="1" parent="1">
          <mxGeometry x="162.02999999999975" y="892.5500000000002" width="43.94" height="15" as="geometry" />
        </mxCell>
        <mxCell id="RBWeou6Ohkpq0n6bIXao-463" value="&lt;div style=&quot;font-size: 9px;&quot;&gt;&lt;div&gt;&lt;b style=&quot;&quot;&gt;&lt;font color=&quot;#000000&quot;&gt;CAN1-L&lt;/font&gt;&lt;/b&gt;&lt;/div&gt;&lt;/div&gt;" style="text;html=1;strokeColor=none;fillColor=none;align=left;verticalAlign=middle;whiteSpace=wrap;rounded=0;rotation=-90;fontColor=#4D4D4D;" vertex="1" parent="1">
          <mxGeometry x="133.84000000000015" y="892.5500000000002" width="43.94" height="15" as="geometry" />
        </mxCell>
        <mxCell id="RBWeou6Ohkpq0n6bIXao-464" value="&lt;div style=&quot;font-size: 9px;&quot;&gt;&lt;div&gt;&lt;b style=&quot;&quot;&gt;&lt;font color=&quot;#000000&quot;&gt;CAN1-H&lt;/font&gt;&lt;/b&gt;&lt;/div&gt;&lt;/div&gt;" style="text;html=1;strokeColor=none;fillColor=none;align=left;verticalAlign=middle;whiteSpace=wrap;rounded=0;rotation=-90;fontColor=#4D4D4D;" vertex="1" parent="1">
          <mxGeometry x="121.05999999999995" y="892.2600000000002" width="43.94" height="15" as="geometry" />
        </mxCell>
        <mxCell id="RBWeou6Ohkpq0n6bIXao-465" value="&lt;div style=&quot;font-size: 9px;&quot;&gt;&lt;b style=&quot;&quot;&gt;&lt;font color=&quot;#000000&quot;&gt;CAN0-L&lt;/font&gt;&lt;/b&gt;&lt;br&gt;&lt;/div&gt;" style="text;html=1;strokeColor=none;fillColor=none;align=left;verticalAlign=middle;whiteSpace=wrap;rounded=0;rotation=-90;fontColor=#4D4D4D;" vertex="1" parent="1">
          <mxGeometry x="105.02999999999975" y="892.5500000000002" width="43.94" height="15" as="geometry" />
        </mxCell>
        <mxCell id="RBWeou6Ohkpq0n6bIXao-466" value="&lt;div style=&quot;font-size: 9px;&quot;&gt;&lt;b style=&quot;&quot;&gt;&lt;font color=&quot;#000000&quot;&gt;CAN0-H&lt;/font&gt;&lt;/b&gt;&lt;br&gt;&lt;/div&gt;" style="text;html=1;strokeColor=none;fillColor=none;align=left;verticalAlign=middle;whiteSpace=wrap;rounded=0;rotation=-90;fontColor=#4D4D4D;" vertex="1" parent="1">
          <mxGeometry x="93.02999999999975" y="893.2600000000002" width="43.94" height="15" as="geometry" />
        </mxCell>
        <mxCell id="RBWeou6Ohkpq0n6bIXao-547" value="&lt;div style=&quot;font-size: 9px;&quot;&gt;&lt;font color=&quot;#000000&quot;&gt;&lt;b&gt;GND-CAN&lt;/b&gt;&lt;/font&gt;&lt;br&gt;&lt;/div&gt;" style="text;html=1;strokeColor=none;fillColor=none;align=left;verticalAlign=middle;whiteSpace=wrap;rounded=0;rotation=-90;fontColor=#4D4D4D;" vertex="1" parent="1">
          <mxGeometry x="-319.49" y="884.46" width="60.97" height="15" as="geometry" />
        </mxCell>
        <mxCell id="RBWeou6Ohkpq0n6bIXao-548" value="" style="rounded=0;whiteSpace=wrap;html=1;strokeColor=#d6b656;fillColor=#fff2cc;" vertex="1" parent="1">
          <mxGeometry x="-429" y="922.26" width="5" height="33.75" as="geometry" />
        </mxCell>
        <mxCell id="RBWeou6Ohkpq0n6bIXao-550" value="" style="rounded=0;whiteSpace=wrap;html=1;strokeColor=#d6b656;fillColor=#fff2cc;" vertex="1" parent="1">
          <mxGeometry x="-415" y="922.26" width="5" height="33.75" as="geometry" />
        </mxCell>
        <mxCell id="RBWeou6Ohkpq0n6bIXao-552" value="" style="rounded=0;whiteSpace=wrap;html=1;strokeColor=#d6b656;fillColor=#fff2cc;" vertex="1" parent="1">
          <mxGeometry x="-401" y="922.26" width="5" height="33.75" as="geometry" />
        </mxCell>
        <mxCell id="RBWeou6Ohkpq0n6bIXao-554" value="" style="rounded=0;whiteSpace=wrap;html=1;strokeColor=#d6b656;fillColor=#fff2cc;" vertex="1" parent="1">
          <mxGeometry x="-386.94000000000005" y="922.26" width="5" height="33.75" as="geometry" />
        </mxCell>
        <mxCell id="RBWeou6Ohkpq0n6bIXao-555" value="" style="rounded=0;whiteSpace=wrap;html=1;strokeColor=#d6b656;fillColor=#fff2cc;" vertex="1" parent="1">
          <mxGeometry x="-373.94000000000005" y="922.26" width="5" height="33.75" as="geometry" />
        </mxCell>
        <mxCell id="RBWeou6Ohkpq0n6bIXao-556" value="" style="rounded=0;whiteSpace=wrap;html=1;strokeColor=#d6b656;fillColor=#fff2cc;" vertex="1" parent="1">
          <mxGeometry x="-359.94000000000005" y="922.26" width="5" height="33.75" as="geometry" />
        </mxCell>
        <mxCell id="RBWeou6Ohkpq0n6bIXao-557" value="" style="rounded=0;whiteSpace=wrap;html=1;strokeColor=#d6b656;fillColor=#fff2cc;" vertex="1" parent="1">
          <mxGeometry x="-345.94000000000005" y="922.26" width="5" height="33.75" as="geometry" />
        </mxCell>
        <mxCell id="RBWeou6Ohkpq0n6bIXao-558" value="" style="rounded=0;whiteSpace=wrap;html=1;strokeColor=#d6b656;fillColor=#fff2cc;" vertex="1" parent="1">
          <mxGeometry x="-331.94000000000005" y="922.26" width="5" height="33.75" as="geometry" />
        </mxCell>
        <mxCell id="RBWeou6Ohkpq0n6bIXao-559" value="" style="rounded=0;whiteSpace=wrap;html=1;strokeColor=#d6b656;fillColor=#fff2cc;" vertex="1" parent="1">
          <mxGeometry x="-317.94000000000005" y="922.26" width="5" height="33.75" as="geometry" />
        </mxCell>
        <mxCell id="RBWeou6Ohkpq0n6bIXao-560" value="" style="rounded=0;whiteSpace=wrap;html=1;strokeColor=#d6b656;fillColor=#fff2cc;" vertex="1" parent="1">
          <mxGeometry x="-304.5" y="922.26" width="5" height="33.75" as="geometry" />
        </mxCell>
        <mxCell id="RBWeou6Ohkpq0n6bIXao-561" value="" style="rounded=0;whiteSpace=wrap;html=1;strokeColor=#d6b656;fillColor=#fff2cc;" vertex="1" parent="1">
          <mxGeometry x="-291.5" y="922.26" width="5" height="33.75" as="geometry" />
        </mxCell>
        <mxCell id="RBWeou6Ohkpq0n6bIXao-562" value="" style="rounded=0;whiteSpace=wrap;html=1;strokeColor=#d6b656;fillColor=#fff2cc;" vertex="1" parent="1">
          <mxGeometry x="-277.5" y="922.26" width="5" height="33.75" as="geometry" />
        </mxCell>
        <mxCell id="RBWeou6Ohkpq0n6bIXao-563" value="" style="rounded=0;whiteSpace=wrap;html=1;strokeColor=#d6b656;fillColor=#fff2cc;" vertex="1" parent="1">
          <mxGeometry x="-263.5" y="922.26" width="5" height="33.75" as="geometry" />
        </mxCell>
        <mxCell id="RBWeou6Ohkpq0n6bIXao-564" value="" style="rounded=0;whiteSpace=wrap;html=1;strokeColor=#d6b656;fillColor=#fff2cc;" vertex="1" parent="1">
          <mxGeometry x="-249.49999999999997" y="922.26" width="5" height="33.75" as="geometry" />
        </mxCell>
        <mxCell id="RBWeou6Ohkpq0n6bIXao-565" value="" style="rounded=0;whiteSpace=wrap;html=1;strokeColor=#d6b656;fillColor=#fff2cc;" vertex="1" parent="1">
          <mxGeometry x="-236.49999999999997" y="922.26" width="5" height="33.75" as="geometry" />
        </mxCell>
        <mxCell id="RBWeou6Ohkpq0n6bIXao-566" value="LED" style="shape=tee;whiteSpace=wrap;html=1;dx=20;dy=30;verticalAlign=top;strokeColor=#4D4D4D;fontColor=#4D4D4D;" vertex="1" parent="1">
          <mxGeometry x="-159.99999999999997" y="1260.01" width="40" height="41.25" as="geometry" />
        </mxCell>
        <mxCell id="RBWeou6Ohkpq0n6bIXao-567" value="" style="rounded=0;whiteSpace=wrap;html=1;strokeColor=#4D4D4D;fontColor=#4D4D4D;fillColor=#666666;" vertex="1" parent="1">
          <mxGeometry x="-189.99999999999997" y="940.0099999999999" width="30" height="30" as="geometry" />
        </mxCell>
        <mxCell id="RBWeou6Ohkpq0n6bIXao-568" value="" style="rounded=0;whiteSpace=wrap;html=1;strokeColor=#b85450;fillColor=#f8cecc;" vertex="1" parent="1">
          <mxGeometry x="-530" y="950.0099999999999" width="450" height="340" as="geometry" />
        </mxCell>
        <mxCell id="RBWeou6Ohkpq0n6bIXao-569" value="" style="ellipse;whiteSpace=wrap;html=1;aspect=fixed;strokeColor=#4D4D4D;fontColor=#4D4D4D;" vertex="1" parent="1">
          <mxGeometry x="-521" y="955.0099999999999" width="20" height="20" as="geometry" />
        </mxCell>
        <mxCell id="RBWeou6Ohkpq0n6bIXao-570" value="" style="ellipse;whiteSpace=wrap;html=1;aspect=fixed;strokeColor=#4D4D4D;fontColor=#4D4D4D;" vertex="1" parent="1">
          <mxGeometry x="-521" y="1265.01" width="20" height="20" as="geometry" />
        </mxCell>
        <mxCell id="RBWeou6Ohkpq0n6bIXao-571" value="" style="ellipse;whiteSpace=wrap;html=1;aspect=fixed;strokeColor=#4D4D4D;fontColor=#4D4D4D;" vertex="1" parent="1">
          <mxGeometry x="-109.99999999999997" y="1265.01" width="20" height="20" as="geometry" />
        </mxCell>
        <mxCell id="RBWeou6Ohkpq0n6bIXao-572" value="" style="ellipse;whiteSpace=wrap;html=1;aspect=fixed;strokeColor=#4D4D4D;fontColor=#4D4D4D;fillColor=default;" vertex="1" parent="1">
          <mxGeometry x="-109.99999999999997" y="955.0099999999999" width="20" height="20" as="geometry" />
        </mxCell>
        <mxCell id="RBWeou6Ohkpq0n6bIXao-573" value="Terminal Block" style="rounded=0;whiteSpace=wrap;html=1;strokeColor=#82b366;fillColor=#d5e8d4;" vertex="1" parent="1">
          <mxGeometry x="-440" y="940.0099999999999" width="220" height="30" as="geometry" />
        </mxCell>
        <mxCell id="RBWeou6Ohkpq0n6bIXao-574" value="" style="rounded=0;whiteSpace=wrap;html=1;strokeColor=#666666;fontColor=#333333;fillColor=#CCCCCC;" vertex="1" parent="1">
          <mxGeometry x="-149.99999999999997" y="940.0099999999999" width="30" height="30" as="geometry" />
        </mxCell>
        <mxCell id="RBWeou6Ohkpq0n6bIXao-575" value="" style="rounded=0;whiteSpace=wrap;html=1;strokeColor=#000000;fontColor=#4D4D4D;fillColor=#666666;" vertex="1" parent="1">
          <mxGeometry x="-159.99999999999997" y="1064.28" width="10" height="20" as="geometry" />
        </mxCell>
        <mxCell id="RBWeou6Ohkpq0n6bIXao-576" value="" style="rounded=0;whiteSpace=wrap;html=1;strokeColor=#000000;fontColor=#4D4D4D;fillColor=#666666;" vertex="1" parent="1">
          <mxGeometry x="-189.99999999999997" y="1064.28" width="10" height="20" as="geometry" />
        </mxCell>
        <mxCell id="RBWeou6Ohkpq0n6bIXao-577" value="" style="rounded=0;whiteSpace=wrap;html=1;strokeColor=#000000;fontColor=#4D4D4D;fillColor=#666666;" vertex="1" parent="1">
          <mxGeometry x="-99.99999999999997" y="1064.28" width="10" height="20" as="geometry" />
        </mxCell>
        <mxCell id="RBWeou6Ohkpq0n6bIXao-578" value="&lt;font color=&quot;#e6e6e6&quot;&gt;M.2 E-KEY&lt;/font&gt;" style="rounded=0;whiteSpace=wrap;html=1;strokeColor=#000000;fontColor=#4D4D4D;fillColor=#666666;" vertex="1" parent="1">
          <mxGeometry x="-189.99999999999997" y="1054.28" width="100" height="20" as="geometry" />
        </mxCell>
        <mxCell id="RBWeou6Ohkpq0n6bIXao-579" value="&lt;div&gt;SD&lt;/div&gt;&lt;div&gt;Card&lt;br&gt;&lt;/div&gt;" style="rounded=0;whiteSpace=wrap;html=1;verticalAlign=top;strokeColor=#4D4D4D;fontColor=#4D4D4D;fillColor=#CCCCCC;" vertex="1" parent="1">
          <mxGeometry x="-490" y="940.0099999999999" width="40" height="50" as="geometry" />
        </mxCell>
        <mxCell id="RBWeou6Ohkpq0n6bIXao-580" value="&lt;div&gt;&lt;br&gt;&lt;/div&gt;" style="rounded=1;whiteSpace=wrap;html=1;strokeColor=#3A5431;fillColor=#6d8764;fontColor=#ffffff;arcSize=4;" vertex="1" parent="1">
          <mxGeometry x="-510" y="980.0100000000001" width="239" height="180" as="geometry" />
        </mxCell>
        <mxCell id="RBWeou6Ohkpq0n6bIXao-581" value="" style="triangle;whiteSpace=wrap;html=1;rotation=90;strokeColor=#4D4D4D;fontColor=#4D4D4D;" vertex="1" parent="1">
          <mxGeometry x="-492" y="1140.01" width="10" height="13.33" as="geometry" />
        </mxCell>
        <mxCell id="RBWeou6Ohkpq0n6bIXao-582" value="" style="triangle;whiteSpace=wrap;html=1;rotation=-90;strokeColor=#4D4D4D;fontColor=#4D4D4D;" vertex="1" parent="1">
          <mxGeometry x="-492" y="986.6800000000002" width="10" height="13.33" as="geometry" />
        </mxCell>
        <mxCell id="RBWeou6Ohkpq0n6bIXao-583" value="Debug UART" style="text;html=1;strokeColor=none;fillColor=none;align=center;verticalAlign=middle;whiteSpace=wrap;rounded=0;fontColor=#4D4D4D;" vertex="1" parent="1">
          <mxGeometry x="-164.99999999999997" y="970.0100000000001" width="60" height="30" as="geometry" />
        </mxCell>
        <mxCell id="RBWeou6Ohkpq0n6bIXao-584" value="" style="group" connectable="0" vertex="1" parent="1">
          <mxGeometry x="-490" y="991.2600000000001" width="200" height="156.02999999999997" as="geometry" />
        </mxCell>
        <mxCell id="RBWeou6Ohkpq0n6bIXao-585" value="" style="rounded=1;whiteSpace=wrap;html=1;labelBackgroundColor=none;fontSize=16;fontColor=#E6E6E6;strokeColor=#000000;fillColor=#CCCCCC;arcSize=20;" vertex="1" parent="RBWeou6Ohkpq0n6bIXao-584">
          <mxGeometry x="20" width="160" height="30" as="geometry" />
        </mxCell>
        <mxCell id="RBWeou6Ohkpq0n6bIXao-586" value="" style="rounded=1;whiteSpace=wrap;html=1;labelBackgroundColor=none;fontSize=16;fontColor=#E6E6E6;strokeColor=#000000;fillColor=#CCCCCC;arcSize=21;" vertex="1" parent="RBWeou6Ohkpq0n6bIXao-584">
          <mxGeometry x="20" y="126.02999999999997" width="160" height="30" as="geometry" />
        </mxCell>
        <mxCell id="RBWeou6Ohkpq0n6bIXao-587" value="" style="rounded=1;whiteSpace=wrap;html=1;labelBackgroundColor=none;fontSize=16;fontColor=#E6E6E6;strokeColor=#000000;fillColor=#CCCCCC;arcSize=6;" vertex="1" parent="RBWeou6Ohkpq0n6bIXao-584">
          <mxGeometry y="17.279999999999973" width="200" height="121.25" as="geometry" />
        </mxCell>
        <mxCell id="RBWeou6Ohkpq0n6bIXao-588" value="" style="rounded=1;whiteSpace=wrap;html=1;labelBackgroundColor=none;fontSize=16;fontColor=#E6E6E6;strokeColor=none;fillColor=#CCCCCC;arcSize=0;gradientColor=none;" vertex="1" parent="RBWeou6Ohkpq0n6bIXao-584">
          <mxGeometry x="20.5" y="117.27999999999997" width="159" height="30" as="geometry" />
        </mxCell>
        <mxCell id="RBWeou6Ohkpq0n6bIXao-589" value="" style="rounded=1;whiteSpace=wrap;html=1;labelBackgroundColor=none;fontSize=16;fontColor=#E6E6E6;strokeColor=none;fillColor=#CCCCCC;arcSize=0;gradientColor=none;" vertex="1" parent="RBWeou6Ohkpq0n6bIXao-584">
          <mxGeometry x="20.5" y="12.279999999999973" width="159" height="30" as="geometry" />
        </mxCell>
        <mxCell id="RBWeou6Ohkpq0n6bIXao-590" value="&lt;div&gt;&lt;font color=&quot;#000000&quot;&gt;K26 SOM Board&lt;/font&gt;&lt;/div&gt;" style="text;html=1;strokeColor=none;fillColor=none;align=center;verticalAlign=middle;whiteSpace=wrap;rounded=0;labelBackgroundColor=none;fontSize=16;fontColor=#E6E6E6;" vertex="1" parent="RBWeou6Ohkpq0n6bIXao-584">
          <mxGeometry x="30" y="4.259999999999991" width="140" height="30" as="geometry" />
        </mxCell>
        <mxCell id="RBWeou6Ohkpq0n6bIXao-591" value="SW7" style="text;html=1;strokeColor=none;fillColor=none;align=center;verticalAlign=middle;whiteSpace=wrap;rounded=0;fontColor=#4D4D4D;" vertex="1" parent="1">
          <mxGeometry x="-256.5" y="971.2600000000001" width="30" height="20" as="geometry" />
        </mxCell>
        <mxCell id="RBWeou6Ohkpq0n6bIXao-600" value="SW8" style="text;html=1;strokeColor=none;fillColor=none;align=center;verticalAlign=middle;whiteSpace=wrap;rounded=0;fontColor=#4D4D4D;" vertex="1" parent="1">
          <mxGeometry x="-491" y="1188.76" width="30" height="20" as="geometry" />
        </mxCell>
        <mxCell id="RBWeou6Ohkpq0n6bIXao-601" value="SW5" style="text;html=1;strokeColor=none;fillColor=none;align=center;verticalAlign=middle;whiteSpace=wrap;rounded=0;fontColor=#4D4D4D;" vertex="1" parent="1">
          <mxGeometry x="-220.99999999999997" y="1202.51" width="30" height="20" as="geometry" />
        </mxCell>
        <mxCell id="RBWeou6Ohkpq0n6bIXao-602" value="" style="group;rotation=-180;" connectable="0" vertex="1" parent="1">
          <mxGeometry x="-492" y="1211.26" width="32.25" height="28.870000000000005" as="geometry" />
        </mxCell>
        <mxCell id="RBWeou6Ohkpq0n6bIXao-603" value="" style="rounded=0;whiteSpace=wrap;html=1;labelBackgroundColor=none;fontSize=16;fontColor=#000000;strokeColor=default;strokeWidth=1;fillColor=#4D4D4D;gradientColor=none;rotation=-180;" vertex="1" parent="RBWeou6Ohkpq0n6bIXao-602">
          <mxGeometry width="32" height="25" as="geometry" />
        </mxCell>
        <mxCell id="RBWeou6Ohkpq0n6bIXao-604" value="" style="rounded=0;whiteSpace=wrap;html=1;labelBackgroundColor=none;fontSize=16;fontColor=#000000;strokeColor=#CCCCCC;strokeWidth=0.5;fillColor=#CCCCCC;gradientColor=none;rotation=-180;" vertex="1" parent="RBWeou6Ohkpq0n6bIXao-602">
          <mxGeometry x="25" y="7" width="5" height="11.25" as="geometry" />
        </mxCell>
        <mxCell id="RBWeou6Ohkpq0n6bIXao-605" value="" style="rounded=0;whiteSpace=wrap;html=1;labelBackgroundColor=none;fontSize=16;fontColor=#000000;strokeColor=#CCCCCC;strokeWidth=0.5;fillColor=#CCCCCC;gradientColor=none;rotation=-180;" vertex="1" parent="RBWeou6Ohkpq0n6bIXao-602">
          <mxGeometry x="18" y="7" width="5" height="11.25" as="geometry" />
        </mxCell>
        <mxCell id="RBWeou6Ohkpq0n6bIXao-606" value="" style="rounded=0;whiteSpace=wrap;html=1;labelBackgroundColor=none;fontSize=16;fontColor=#000000;strokeColor=#CCCCCC;strokeWidth=0.5;fillColor=#CCCCCC;gradientColor=none;rotation=-180;" vertex="1" parent="RBWeou6Ohkpq0n6bIXao-602">
          <mxGeometry x="10" y="7" width="5" height="11.25" as="geometry" />
        </mxCell>
        <mxCell id="RBWeou6Ohkpq0n6bIXao-607" value="" style="rounded=0;whiteSpace=wrap;html=1;labelBackgroundColor=none;fontSize=16;fontColor=#000000;strokeColor=#CCCCCC;strokeWidth=0.5;fillColor=#CCCCCC;gradientColor=none;rotation=-180;" vertex="1" parent="RBWeou6Ohkpq0n6bIXao-602">
          <mxGeometry x="3" y="7" width="5" height="11.25" as="geometry" />
        </mxCell>
        <mxCell id="RBWeou6Ohkpq0n6bIXao-608" value="" style="rounded=0;whiteSpace=wrap;html=1;labelBackgroundColor=none;fontSize=16;fontColor=#000000;strokeColor=#B3B3B3;strokeWidth=0.5;fillColor=#FFFFFF;gradientColor=none;rotation=-180;" vertex="1" parent="RBWeou6Ohkpq0n6bIXao-602">
          <mxGeometry x="3" y="13.25" width="5" height="5" as="geometry" />
        </mxCell>
        <mxCell id="RBWeou6Ohkpq0n6bIXao-609" value="" style="rounded=0;whiteSpace=wrap;html=1;labelBackgroundColor=none;fontSize=16;fontColor=#000000;strokeColor=#B3B3B3;strokeWidth=0.5;fillColor=#FFFFFF;gradientColor=none;rotation=-180;" vertex="1" parent="RBWeou6Ohkpq0n6bIXao-602">
          <mxGeometry x="10" y="13.25" width="5" height="5" as="geometry" />
        </mxCell>
        <mxCell id="RBWeou6Ohkpq0n6bIXao-610" value="" style="rounded=0;whiteSpace=wrap;html=1;labelBackgroundColor=none;fontSize=16;fontColor=#000000;strokeColor=#B3B3B3;strokeWidth=0.5;fillColor=#FFFFFF;gradientColor=none;rotation=-180;" vertex="1" parent="RBWeou6Ohkpq0n6bIXao-602">
          <mxGeometry x="18" y="7" width="5" height="5" as="geometry" />
        </mxCell>
        <mxCell id="RBWeou6Ohkpq0n6bIXao-611" value="" style="rounded=0;whiteSpace=wrap;html=1;labelBackgroundColor=none;fontSize=16;fontColor=#000000;strokeColor=#B3B3B3;strokeWidth=0.5;fillColor=#FFFFFF;gradientColor=none;rotation=-180;" vertex="1" parent="RBWeou6Ohkpq0n6bIXao-602">
          <mxGeometry x="25" y="13.25" width="5" height="5" as="geometry" />
        </mxCell>
        <mxCell id="RBWeou6Ohkpq0n6bIXao-612" value="&lt;span style=&quot;font-size: 4px;&quot;&gt;&lt;font color=&quot;#ffffff&quot;&gt;1&lt;/font&gt;&lt;/span&gt;" style="text;html=1;strokeColor=none;fillColor=none;align=center;verticalAlign=middle;whiteSpace=wrap;rounded=0;labelBackgroundColor=none;fontSize=10;fontColor=#000000;rotation=-180;" vertex="1" parent="RBWeou6Ohkpq0n6bIXao-602">
          <mxGeometry x="22" y="1" width="10" height="10" as="geometry" />
        </mxCell>
        <mxCell id="RBWeou6Ohkpq0n6bIXao-613" value="&lt;span style=&quot;font-size: 4px;&quot;&gt;&lt;font color=&quot;#ffffff&quot;&gt;2&lt;/font&gt;&lt;/span&gt;" style="text;html=1;strokeColor=none;fillColor=none;align=center;verticalAlign=middle;whiteSpace=wrap;rounded=0;labelBackgroundColor=none;fontSize=10;fontColor=#000000;rotation=-180;" vertex="1" parent="RBWeou6Ohkpq0n6bIXao-602">
          <mxGeometry x="15" y="1" width="10" height="10" as="geometry" />
        </mxCell>
        <mxCell id="RBWeou6Ohkpq0n6bIXao-614" value="&lt;span style=&quot;font-size: 4px;&quot;&gt;&lt;font color=&quot;#ffffff&quot;&gt;3&lt;/font&gt;&lt;/span&gt;" style="text;html=1;strokeColor=none;fillColor=none;align=center;verticalAlign=middle;whiteSpace=wrap;rounded=0;labelBackgroundColor=none;fontSize=10;fontColor=#000000;rotation=-180;" vertex="1" parent="RBWeou6Ohkpq0n6bIXao-602">
          <mxGeometry x="7" y="1" width="10" height="10" as="geometry" />
        </mxCell>
        <mxCell id="RBWeou6Ohkpq0n6bIXao-615" value="&lt;span style=&quot;font-size: 4px;&quot;&gt;&lt;font color=&quot;#ffffff&quot;&gt;4&lt;/font&gt;&lt;/span&gt;" style="text;html=1;strokeColor=none;fillColor=none;align=center;verticalAlign=middle;whiteSpace=wrap;rounded=0;labelBackgroundColor=none;fontSize=10;fontColor=#000000;rotation=-180;" vertex="1" parent="RBWeou6Ohkpq0n6bIXao-602">
          <mxGeometry y="1" width="10" height="10" as="geometry" />
        </mxCell>
        <mxCell id="RBWeou6Ohkpq0n6bIXao-616" value="&lt;font color=&quot;#ffffff&quot;&gt;&lt;span style=&quot;font-size: 4px;&quot;&gt;ON&lt;/span&gt;&lt;/font&gt;" style="text;html=1;strokeColor=none;fillColor=none;align=center;verticalAlign=middle;whiteSpace=wrap;rounded=0;labelBackgroundColor=none;fontSize=10;fontColor=#000000;rotation=-180;" vertex="1" parent="RBWeou6Ohkpq0n6bIXao-602">
          <mxGeometry x="11" y="19" width="10" height="10" as="geometry" />
        </mxCell>
        <mxCell id="RBWeou6Ohkpq0n6bIXao-617" value="" style="group;rotation=-90;" connectable="0" vertex="1" parent="1">
          <mxGeometry x="-223.99999999999997" y="1173.26" width="32.25" height="28.870000000000005" as="geometry" />
        </mxCell>
        <mxCell id="RBWeou6Ohkpq0n6bIXao-618" value="" style="rounded=0;whiteSpace=wrap;html=1;labelBackgroundColor=none;fontSize=16;fontColor=#000000;strokeColor=default;strokeWidth=1;fillColor=#4D4D4D;gradientColor=none;rotation=-90;" vertex="1" parent="RBWeou6Ohkpq0n6bIXao-617">
          <mxGeometry x="2" y="2" width="32" height="25" as="geometry" />
        </mxCell>
        <mxCell id="RBWeou6Ohkpq0n6bIXao-619" value="" style="rounded=0;whiteSpace=wrap;html=1;labelBackgroundColor=none;fontSize=16;fontColor=#000000;strokeColor=#CCCCCC;strokeWidth=0.5;fillColor=#CCCCCC;gradientColor=none;rotation=-90;" vertex="1" parent="RBWeou6Ohkpq0n6bIXao-617">
          <mxGeometry x="15" y="20" width="5" height="11.25" as="geometry" />
        </mxCell>
        <mxCell id="RBWeou6Ohkpq0n6bIXao-620" value="" style="rounded=0;whiteSpace=wrap;html=1;labelBackgroundColor=none;fontSize=16;fontColor=#000000;strokeColor=#CCCCCC;strokeWidth=0.5;fillColor=#CCCCCC;gradientColor=none;rotation=-90;" vertex="1" parent="RBWeou6Ohkpq0n6bIXao-617">
          <mxGeometry x="15" y="13" width="5" height="11.25" as="geometry" />
        </mxCell>
        <mxCell id="RBWeou6Ohkpq0n6bIXao-621" value="" style="rounded=0;whiteSpace=wrap;html=1;labelBackgroundColor=none;fontSize=16;fontColor=#000000;strokeColor=#CCCCCC;strokeWidth=0.5;fillColor=#CCCCCC;gradientColor=none;rotation=-90;" vertex="1" parent="RBWeou6Ohkpq0n6bIXao-617">
          <mxGeometry x="15" y="5" width="5" height="11.25" as="geometry" />
        </mxCell>
        <mxCell id="RBWeou6Ohkpq0n6bIXao-622" value="" style="rounded=0;whiteSpace=wrap;html=1;labelBackgroundColor=none;fontSize=16;fontColor=#000000;strokeColor=#CCCCCC;strokeWidth=0.5;fillColor=#CCCCCC;gradientColor=none;rotation=-90;" vertex="1" parent="RBWeou6Ohkpq0n6bIXao-617">
          <mxGeometry x="15" y="-2" width="5" height="11.25" as="geometry" />
        </mxCell>
        <mxCell id="RBWeou6Ohkpq0n6bIXao-623" value="" style="rounded=0;whiteSpace=wrap;html=1;labelBackgroundColor=none;fontSize=16;fontColor=#000000;strokeColor=#B3B3B3;strokeWidth=0.5;fillColor=#FFFFFF;gradientColor=none;rotation=-90;" vertex="1" parent="RBWeou6Ohkpq0n6bIXao-617">
          <mxGeometry x="18" y="1.13" width="5" height="5" as="geometry" />
        </mxCell>
        <mxCell id="RBWeou6Ohkpq0n6bIXao-624" value="" style="rounded=0;whiteSpace=wrap;html=1;labelBackgroundColor=none;fontSize=16;fontColor=#000000;strokeColor=#B3B3B3;strokeWidth=0.5;fillColor=#FFFFFF;gradientColor=none;rotation=-90;" vertex="1" parent="RBWeou6Ohkpq0n6bIXao-617">
          <mxGeometry x="18" y="8.129999999999999" width="5" height="5" as="geometry" />
        </mxCell>
        <mxCell id="RBWeou6Ohkpq0n6bIXao-625" value="" style="rounded=0;whiteSpace=wrap;html=1;labelBackgroundColor=none;fontSize=16;fontColor=#000000;strokeColor=#B3B3B3;strokeWidth=0.5;fillColor=#FFFFFF;gradientColor=none;rotation=-90;" vertex="1" parent="RBWeou6Ohkpq0n6bIXao-617">
          <mxGeometry x="18" y="16.13" width="5" height="5" as="geometry" />
        </mxCell>
        <mxCell id="RBWeou6Ohkpq0n6bIXao-626" value="" style="rounded=0;whiteSpace=wrap;html=1;labelBackgroundColor=none;fontSize=16;fontColor=#000000;strokeColor=#B3B3B3;strokeWidth=0.5;fillColor=#FFFFFF;gradientColor=none;rotation=-90;" vertex="1" parent="RBWeou6Ohkpq0n6bIXao-617">
          <mxGeometry x="18" y="23.12" width="5" height="5" as="geometry" />
        </mxCell>
        <mxCell id="RBWeou6Ohkpq0n6bIXao-627" value="&lt;span style=&quot;font-size: 4px;&quot;&gt;&lt;font color=&quot;#ffffff&quot;&gt;1&lt;/font&gt;&lt;/span&gt;" style="text;html=1;strokeColor=none;fillColor=none;align=center;verticalAlign=middle;whiteSpace=wrap;rounded=0;labelBackgroundColor=none;fontSize=10;fontColor=#000000;rotation=-90;" vertex="1" parent="RBWeou6Ohkpq0n6bIXao-617">
          <mxGeometry x="20" y="20" width="10" height="10" as="geometry" />
        </mxCell>
        <mxCell id="RBWeou6Ohkpq0n6bIXao-628" value="&lt;span style=&quot;font-size: 4px;&quot;&gt;&lt;font color=&quot;#ffffff&quot;&gt;2&lt;/font&gt;&lt;/span&gt;" style="text;html=1;strokeColor=none;fillColor=none;align=center;verticalAlign=middle;whiteSpace=wrap;rounded=0;labelBackgroundColor=none;fontSize=10;fontColor=#000000;rotation=-90;" vertex="1" parent="RBWeou6Ohkpq0n6bIXao-617">
          <mxGeometry x="20" y="13" width="10" height="10" as="geometry" />
        </mxCell>
        <mxCell id="RBWeou6Ohkpq0n6bIXao-629" value="&lt;span style=&quot;font-size: 4px;&quot;&gt;&lt;font color=&quot;#ffffff&quot;&gt;3&lt;/font&gt;&lt;/span&gt;" style="text;html=1;strokeColor=none;fillColor=none;align=center;verticalAlign=middle;whiteSpace=wrap;rounded=0;labelBackgroundColor=none;fontSize=10;fontColor=#000000;rotation=-90;" vertex="1" parent="RBWeou6Ohkpq0n6bIXao-617">
          <mxGeometry x="20" y="5" width="10" height="10" as="geometry" />
        </mxCell>
        <mxCell id="RBWeou6Ohkpq0n6bIXao-630" value="&lt;span style=&quot;font-size: 4px;&quot;&gt;&lt;font color=&quot;#ffffff&quot;&gt;4&lt;/font&gt;&lt;/span&gt;" style="text;html=1;strokeColor=none;fillColor=none;align=center;verticalAlign=middle;whiteSpace=wrap;rounded=0;labelBackgroundColor=none;fontSize=10;fontColor=#000000;rotation=-90;" vertex="1" parent="RBWeou6Ohkpq0n6bIXao-617">
          <mxGeometry x="20" y="-2" width="10" height="10" as="geometry" />
        </mxCell>
        <mxCell id="RBWeou6Ohkpq0n6bIXao-631" value="&lt;font color=&quot;#ffffff&quot;&gt;&lt;span style=&quot;font-size: 4px;&quot;&gt;ON&lt;/span&gt;&lt;/font&gt;" style="text;html=1;strokeColor=none;fillColor=none;align=center;verticalAlign=middle;whiteSpace=wrap;rounded=0;labelBackgroundColor=none;fontSize=10;fontColor=#000000;rotation=-90;" vertex="1" parent="RBWeou6Ohkpq0n6bIXao-617">
          <mxGeometry x="2" y="9" width="10" height="10" as="geometry" />
        </mxCell>
        <mxCell id="RBWeou6Ohkpq0n6bIXao-632" value="" style="group;rotation=-181;" connectable="0" vertex="1" parent="1">
          <mxGeometry x="-249.24999999999997" y="989.68" width="17.5" height="30" as="geometry" />
        </mxCell>
        <mxCell id="RBWeou6Ohkpq0n6bIXao-633" value="" style="rounded=0;whiteSpace=wrap;html=1;labelBackgroundColor=none;fontSize=16;fontColor=#000000;strokeColor=default;strokeWidth=1;fillColor=#4D4D4D;gradientColor=none;rotation=-181;" vertex="1" parent="RBWeou6Ohkpq0n6bIXao-632">
          <mxGeometry width="17" height="25" as="geometry" />
        </mxCell>
        <mxCell id="RBWeou6Ohkpq0n6bIXao-634" value="" style="rounded=0;whiteSpace=wrap;html=1;labelBackgroundColor=none;fontSize=16;fontColor=#000000;strokeColor=#CCCCCC;strokeWidth=0.5;fillColor=#CCCCCC;gradientColor=none;rotation=-181;" vertex="1" parent="RBWeou6Ohkpq0n6bIXao-632">
          <mxGeometry x="9" y="7" width="5" height="11.25" as="geometry" />
        </mxCell>
        <mxCell id="RBWeou6Ohkpq0n6bIXao-635" value="" style="rounded=0;whiteSpace=wrap;html=1;labelBackgroundColor=none;fontSize=16;fontColor=#000000;strokeColor=#CCCCCC;strokeWidth=0.5;fillColor=#CCCCCC;gradientColor=none;rotation=-181;" vertex="1" parent="RBWeou6Ohkpq0n6bIXao-632">
          <mxGeometry x="2" y="7" width="5" height="11.25" as="geometry" />
        </mxCell>
        <mxCell id="RBWeou6Ohkpq0n6bIXao-636" value="" style="rounded=0;whiteSpace=wrap;html=1;labelBackgroundColor=none;fontSize=16;fontColor=#000000;strokeColor=#B3B3B3;strokeWidth=0.5;fillColor=#FFFFFF;gradientColor=none;rotation=-181;" vertex="1" parent="RBWeou6Ohkpq0n6bIXao-632">
          <mxGeometry x="2" y="7" width="5" height="5" as="geometry" />
        </mxCell>
        <mxCell id="RBWeou6Ohkpq0n6bIXao-637" value="" style="rounded=0;whiteSpace=wrap;html=1;labelBackgroundColor=none;fontSize=16;fontColor=#000000;strokeColor=#B3B3B3;strokeWidth=0.5;fillColor=#FFFFFF;gradientColor=none;rotation=-181;" vertex="1" parent="RBWeou6Ohkpq0n6bIXao-632">
          <mxGeometry x="9" y="7" width="5" height="5" as="geometry" />
        </mxCell>
        <mxCell id="RBWeou6Ohkpq0n6bIXao-638" value="&lt;font color=&quot;#ffffff&quot;&gt;&lt;span style=&quot;font-size: 4px;&quot;&gt;ON&lt;/span&gt;&lt;/font&gt;" style="text;html=1;strokeColor=none;fillColor=none;align=center;verticalAlign=middle;whiteSpace=wrap;rounded=0;labelBackgroundColor=none;fontSize=10;fontColor=#000000;rotation=-181;" vertex="1" parent="RBWeou6Ohkpq0n6bIXao-632">
          <mxGeometry x="4" y="20" width="10" height="10" as="geometry" />
        </mxCell>
        <mxCell id="RBWeou6Ohkpq0n6bIXao-639" value="&lt;span style=&quot;font-size: 4px;&quot;&gt;&lt;font color=&quot;#ffffff&quot;&gt;1&lt;/font&gt;&lt;/span&gt;" style="text;html=1;strokeColor=none;fillColor=none;align=center;verticalAlign=middle;whiteSpace=wrap;rounded=0;labelBackgroundColor=none;fontSize=10;fontColor=#000000;rotation=-181;" vertex="1" parent="RBWeou6Ohkpq0n6bIXao-632">
          <mxGeometry x="7" y="1" width="10" height="10" as="geometry" />
        </mxCell>
        <mxCell id="RBWeou6Ohkpq0n6bIXao-640" value="&lt;span style=&quot;font-size: 4px;&quot;&gt;&lt;font color=&quot;#ffffff&quot;&gt;2&lt;/font&gt;&lt;/span&gt;" style="text;html=1;strokeColor=none;fillColor=none;align=center;verticalAlign=middle;whiteSpace=wrap;rounded=0;labelBackgroundColor=none;fontSize=10;fontColor=#000000;rotation=-181;" vertex="1" parent="RBWeou6Ohkpq0n6bIXao-632">
          <mxGeometry y="1" width="10" height="10" as="geometry" />
        </mxCell>
        <mxCell id="RBWeou6Ohkpq0n6bIXao-643" value="&lt;div style=&quot;font-size: 9px;&quot;&gt;&lt;font color=&quot;#000000&quot; style=&quot;font-size: 9px;&quot;&gt;&lt;b&gt;GND&lt;/b&gt;&lt;/font&gt;&lt;/div&gt;" style="text;html=1;strokeColor=none;fillColor=none;align=left;verticalAlign=middle;whiteSpace=wrap;rounded=0;rotation=-90;fontColor=#4D4D4D;" vertex="1" parent="1">
          <mxGeometry x="-438.06999999999994" y="903.98" width="22.63" height="15" as="geometry" />
        </mxCell>
        <mxCell id="RBWeou6Ohkpq0n6bIXao-644" value="&lt;div style=&quot;font-size: 9px&quot;&gt;&lt;b&gt;&lt;font color=&quot;#000033&quot;&gt;GPIO4&lt;/font&gt;&lt;/b&gt;&lt;br&gt;&lt;/div&gt;" style="text;html=1;strokeColor=none;fillColor=none;align=left;verticalAlign=middle;whiteSpace=wrap;rounded=0;rotation=-90;fontColor=#4D4D4D;" vertex="1" parent="1">
          <mxGeometry x="-423.88" y="903.98" width="22.63" height="15" as="geometry" />
        </mxCell>
        <mxCell id="RBWeou6Ohkpq0n6bIXao-645" value="&lt;div style=&quot;font-size: 9px&quot;&gt;&lt;b&gt;&lt;font color=&quot;#000033&quot;&gt;GPIO3&lt;/font&gt;&lt;/b&gt;&lt;br&gt;&lt;/div&gt;" style="text;html=1;strokeColor=none;fillColor=none;align=left;verticalAlign=middle;whiteSpace=wrap;rounded=0;rotation=-90;fontColor=#4D4D4D;" vertex="1" parent="1">
          <mxGeometry x="-409.76" y="903.98" width="22.63" height="15" as="geometry" />
        </mxCell>
        <mxCell id="RBWeou6Ohkpq0n6bIXao-646" value="&lt;div style=&quot;font-size: 9px&quot;&gt;&lt;b&gt;&lt;font color=&quot;#000033&quot;&gt;GPIO2&lt;/font&gt;&lt;/b&gt;&lt;/div&gt;" style="text;html=1;strokeColor=none;fillColor=none;align=left;verticalAlign=middle;whiteSpace=wrap;rounded=0;rotation=-90;fontColor=#4D4D4D;" vertex="1" parent="1">
          <mxGeometry x="-395.63" y="903.98" width="22.63" height="15" as="geometry" />
        </mxCell>
        <mxCell id="RBWeou6Ohkpq0n6bIXao-647" value="&lt;div style=&quot;font-size: 9px&quot;&gt;&lt;b&gt;&lt;font color=&quot;#000033&quot;&gt;GPIO1&lt;/font&gt;&lt;/b&gt;&lt;/div&gt;" style="text;html=1;strokeColor=none;fillColor=none;align=left;verticalAlign=middle;whiteSpace=wrap;rounded=0;rotation=-90;fontColor=#4D4D4D;" vertex="1" parent="1">
          <mxGeometry x="-382.94" y="902.9799999999999" width="22.63" height="15" as="geometry" />
        </mxCell>
        <mxCell id="RBWeou6Ohkpq0n6bIXao-648" value="&lt;div style=&quot;font-size: 9px&quot;&gt;&lt;b&gt;&lt;font color=&quot;#000033&quot;&gt;GPIO0&lt;/font&gt;&lt;/b&gt;&lt;/div&gt;" style="text;html=1;strokeColor=none;fillColor=none;align=left;verticalAlign=middle;whiteSpace=wrap;rounded=0;rotation=-90;fontColor=#4D4D4D;" vertex="1" parent="1">
          <mxGeometry x="-368.94" y="902.98" width="22.63" height="15" as="geometry" />
        </mxCell>
        <mxCell id="RBWeou6Ohkpq0n6bIXao-649" value="&lt;div style=&quot;font-size: 9px;&quot;&gt;&lt;font color=&quot;#000000&quot;&gt;&lt;b&gt;Debug UART-RX&lt;/b&gt;&lt;/font&gt;&lt;br&gt;&lt;/div&gt;" style="text;html=1;strokeColor=none;fillColor=none;align=left;verticalAlign=middle;whiteSpace=wrap;rounded=0;rotation=-90;fontColor=#4D4D4D;" vertex="1" parent="1">
          <mxGeometry x="-382.65" y="875.5500000000001" width="78.94" height="15" as="geometry" />
        </mxCell>
        <mxCell id="RBWeou6Ohkpq0n6bIXao-650" value="&lt;div style=&quot;font-size: 9px;&quot;&gt;&lt;font color=&quot;#000000&quot;&gt;&lt;b&gt;Debug UART-&lt;span style=&quot;background-color: initial;&quot;&gt;TX&lt;/span&gt;&lt;/b&gt;&lt;/font&gt;&lt;/div&gt;" style="text;html=1;strokeColor=none;fillColor=none;align=left;verticalAlign=middle;whiteSpace=wrap;rounded=0;rotation=-90;fontColor=#4D4D4D;" vertex="1" parent="1">
          <mxGeometry x="-364.94" y="879.26" width="71.51" height="15" as="geometry" />
        </mxCell>
        <mxCell id="RBWeou6Ohkpq0n6bIXao-651" value="&lt;div style=&quot;font-size: 9px&quot;&gt;&lt;div&gt;&lt;b&gt;&lt;font color=&quot;#000033&quot;&gt;I2C-SCK&lt;/font&gt;&lt;/b&gt;&lt;/div&gt;&lt;/div&gt;" style="text;html=1;strokeColor=none;fillColor=none;align=left;verticalAlign=middle;whiteSpace=wrap;rounded=0;rotation=-90;fontColor=#4D4D4D;" vertex="1" parent="1">
          <mxGeometry x="-336.94" y="893.26" width="43.94" height="15" as="geometry" />
        </mxCell>
        <mxCell id="RBWeou6Ohkpq0n6bIXao-652" value="&lt;div style=&quot;font-size: 9px&quot;&gt;&lt;b&gt;&lt;font color=&quot;#000033&quot;&gt;I2C-SDA&lt;/font&gt;&lt;/b&gt;&lt;br&gt;&lt;/div&gt;" style="text;html=1;strokeColor=none;fillColor=none;align=left;verticalAlign=middle;whiteSpace=wrap;rounded=0;rotation=-90;fontColor=#4D4D4D;" vertex="1" parent="1">
          <mxGeometry x="-324.40999999999997" y="893.5500000000001" width="43.94" height="15" as="geometry" />
        </mxCell>
        <mxCell id="RBWeou6Ohkpq0n6bIXao-653" value="&lt;div style=&quot;font-size: 9px&quot;&gt;&lt;div&gt;&lt;b&gt;&lt;font color=&quot;#000033&quot;&gt;CAN1-L&lt;/font&gt;&lt;/b&gt;&lt;/div&gt;&lt;/div&gt;" style="text;html=1;strokeColor=none;fillColor=none;align=left;verticalAlign=middle;whiteSpace=wrap;rounded=0;rotation=-90;fontColor=#4D4D4D;" vertex="1" parent="1">
          <mxGeometry x="-296.97" y="892.98" width="43.94" height="15" as="geometry" />
        </mxCell>
        <mxCell id="RBWeou6Ohkpq0n6bIXao-654" value="&lt;div style=&quot;font-size: 9px&quot;&gt;&lt;div&gt;&lt;b&gt;&lt;font color=&quot;#000033&quot;&gt;CAN1-H&lt;/font&gt;&lt;/b&gt;&lt;/div&gt;&lt;/div&gt;" style="text;html=1;strokeColor=none;fillColor=none;align=left;verticalAlign=middle;whiteSpace=wrap;rounded=0;rotation=-90;fontColor=#4D4D4D;" vertex="1" parent="1">
          <mxGeometry x="-283.88" y="892.98" width="43.94" height="15" as="geometry" />
        </mxCell>
        <mxCell id="RBWeou6Ohkpq0n6bIXao-655" value="&lt;div style=&quot;font-size: 9px&quot;&gt;&lt;b&gt;&lt;font color=&quot;#000033&quot;&gt;CAN0-L&lt;/font&gt;&lt;/b&gt;&lt;br&gt;&lt;/div&gt;" style="text;html=1;strokeColor=none;fillColor=none;align=left;verticalAlign=middle;whiteSpace=wrap;rounded=0;rotation=-90;fontColor=#4D4D4D;" vertex="1" parent="1">
          <mxGeometry x="-268.94" y="892.98" width="43.94" height="15" as="geometry" />
        </mxCell>
        <mxCell id="RBWeou6Ohkpq0n6bIXao-656" value="&lt;div style=&quot;font-size: 9px&quot;&gt;&lt;b&gt;&lt;font color=&quot;#000033&quot;&gt;CAN0-H&lt;/font&gt;&lt;/b&gt;&lt;br&gt;&lt;/div&gt;" style="text;html=1;strokeColor=none;fillColor=none;align=left;verticalAlign=middle;whiteSpace=wrap;rounded=0;rotation=-90;fontColor=#4D4D4D;" vertex="1" parent="1">
          <mxGeometry x="-254.97" y="892.98" width="43.94" height="15" as="geometry" />
        </mxCell>
        <mxCell id="ggPtCmF2vx0LdzmDwPyb-17" value="" style="group" connectable="0" vertex="1" parent="1">
          <mxGeometry x="52" y="1214.2600000000002" width="13" height="22" as="geometry" />
        </mxCell>
        <mxCell id="ggPtCmF2vx0LdzmDwPyb-18" value="" style="rounded=1;whiteSpace=wrap;html=1;labelBackgroundColor=none;fontSize=16;fontColor=#000000;strokeColor=default;strokeWidth=1;fillColor=#4D4D4D;gradientColor=none;arcSize=22;" vertex="1" parent="ggPtCmF2vx0LdzmDwPyb-17">
          <mxGeometry width="13" height="11" as="geometry" />
        </mxCell>
        <mxCell id="ggPtCmF2vx0LdzmDwPyb-19" value="" style="rounded=1;whiteSpace=wrap;html=1;labelBackgroundColor=none;fontSize=16;fontColor=#000000;strokeColor=default;strokeWidth=1;fillColor=#4D4D4D;gradientColor=none;arcSize=22;" vertex="1" parent="ggPtCmF2vx0LdzmDwPyb-17">
          <mxGeometry y="11" width="13" height="11" as="geometry" />
        </mxCell>
        <mxCell id="ggPtCmF2vx0LdzmDwPyb-20" value="" style="rounded=0;whiteSpace=wrap;html=1;labelBackgroundColor=none;fontSize=16;strokeColor=#B3B3B3;strokeWidth=0.5;fillColor=#f5f5f5;fontColor=#333333;" vertex="1" parent="ggPtCmF2vx0LdzmDwPyb-17">
          <mxGeometry x="4" y="3" width="5" height="5" as="geometry" />
        </mxCell>
        <mxCell id="ggPtCmF2vx0LdzmDwPyb-21" value="" style="rounded=0;whiteSpace=wrap;html=1;labelBackgroundColor=none;fontSize=16;strokeColor=#B3B3B3;strokeWidth=0.5;fillColor=#FFFFFF;" vertex="1" parent="ggPtCmF2vx0LdzmDwPyb-17">
          <mxGeometry x="4" y="14" width="5" height="5" as="geometry" />
        </mxCell>
        <mxCell id="ggPtCmF2vx0LdzmDwPyb-22" value="" style="group" connectable="0" vertex="1" parent="1">
          <mxGeometry x="13" y="1214.2600000000002" width="13" height="22" as="geometry" />
        </mxCell>
        <mxCell id="ggPtCmF2vx0LdzmDwPyb-23" value="" style="rounded=1;whiteSpace=wrap;html=1;labelBackgroundColor=none;fontSize=16;fontColor=#000000;strokeColor=default;strokeWidth=1;fillColor=#4D4D4D;gradientColor=none;arcSize=22;" vertex="1" parent="ggPtCmF2vx0LdzmDwPyb-22">
          <mxGeometry width="13" height="11" as="geometry" />
        </mxCell>
        <mxCell id="ggPtCmF2vx0LdzmDwPyb-24" value="" style="rounded=1;whiteSpace=wrap;html=1;labelBackgroundColor=none;fontSize=16;fontColor=#000000;strokeColor=default;strokeWidth=1;fillColor=#4D4D4D;gradientColor=none;arcSize=22;" vertex="1" parent="ggPtCmF2vx0LdzmDwPyb-22">
          <mxGeometry y="11" width="13" height="11" as="geometry" />
        </mxCell>
        <mxCell id="ggPtCmF2vx0LdzmDwPyb-25" value="" style="rounded=0;whiteSpace=wrap;html=1;labelBackgroundColor=none;fontSize=16;strokeColor=#B3B3B3;strokeWidth=0.5;fillColor=#000000;fontColor=#333333;" vertex="1" parent="ggPtCmF2vx0LdzmDwPyb-22">
          <mxGeometry x="4" y="3" width="5" height="5" as="geometry" />
        </mxCell>
        <mxCell id="ggPtCmF2vx0LdzmDwPyb-26" value="" style="rounded=0;whiteSpace=wrap;html=1;labelBackgroundColor=none;fontSize=16;strokeColor=#B3B3B3;strokeWidth=0.5;fillColor=#FFFFFF;" vertex="1" parent="ggPtCmF2vx0LdzmDwPyb-22">
          <mxGeometry x="4" y="14" width="5" height="5" as="geometry" />
        </mxCell>
        <mxCell id="ggPtCmF2vx0LdzmDwPyb-27" value="" style="group" connectable="0" vertex="1" parent="1">
          <mxGeometry x="39" y="1214.2600000000002" width="13" height="22" as="geometry" />
        </mxCell>
        <mxCell id="ggPtCmF2vx0LdzmDwPyb-28" value="" style="rounded=1;whiteSpace=wrap;html=1;labelBackgroundColor=none;fontSize=16;fontColor=#000000;strokeColor=default;strokeWidth=1;fillColor=#4D4D4D;gradientColor=none;arcSize=22;" vertex="1" parent="ggPtCmF2vx0LdzmDwPyb-27">
          <mxGeometry width="13" height="11" as="geometry" />
        </mxCell>
        <mxCell id="ggPtCmF2vx0LdzmDwPyb-29" value="" style="rounded=1;whiteSpace=wrap;html=1;labelBackgroundColor=none;fontSize=16;fontColor=#000000;strokeColor=default;strokeWidth=1;fillColor=#4D4D4D;gradientColor=none;arcSize=22;" vertex="1" parent="ggPtCmF2vx0LdzmDwPyb-27">
          <mxGeometry y="11" width="13" height="11" as="geometry" />
        </mxCell>
        <mxCell id="ggPtCmF2vx0LdzmDwPyb-30" value="" style="rounded=0;whiteSpace=wrap;html=1;labelBackgroundColor=none;fontSize=16;strokeColor=#B3B3B3;strokeWidth=0.5;fillColor=#f5f5f5;fontColor=#333333;" vertex="1" parent="ggPtCmF2vx0LdzmDwPyb-27">
          <mxGeometry x="4" y="3" width="5" height="5" as="geometry" />
        </mxCell>
        <mxCell id="ggPtCmF2vx0LdzmDwPyb-31" value="" style="rounded=0;whiteSpace=wrap;html=1;labelBackgroundColor=none;fontSize=16;strokeColor=#B3B3B3;strokeWidth=0.5;fillColor=#FFFFFF;" vertex="1" parent="ggPtCmF2vx0LdzmDwPyb-27">
          <mxGeometry x="4" y="14" width="5" height="5" as="geometry" />
        </mxCell>
        <mxCell id="ggPtCmF2vx0LdzmDwPyb-32" value="" style="group" connectable="0" vertex="1" parent="1">
          <mxGeometry x="26" y="1214.2600000000002" width="13" height="22" as="geometry" />
        </mxCell>
        <mxCell id="ggPtCmF2vx0LdzmDwPyb-33" value="" style="rounded=1;whiteSpace=wrap;html=1;labelBackgroundColor=none;fontSize=16;fontColor=#000000;strokeColor=default;strokeWidth=1;fillColor=#4D4D4D;gradientColor=none;arcSize=22;" vertex="1" parent="ggPtCmF2vx0LdzmDwPyb-32">
          <mxGeometry width="13" height="11" as="geometry" />
        </mxCell>
        <mxCell id="ggPtCmF2vx0LdzmDwPyb-34" value="" style="rounded=1;whiteSpace=wrap;html=1;labelBackgroundColor=none;fontSize=16;fontColor=#000000;strokeColor=default;strokeWidth=1;fillColor=#4D4D4D;gradientColor=none;arcSize=22;" vertex="1" parent="ggPtCmF2vx0LdzmDwPyb-32">
          <mxGeometry y="11" width="13" height="11" as="geometry" />
        </mxCell>
        <mxCell id="ggPtCmF2vx0LdzmDwPyb-35" value="" style="rounded=0;whiteSpace=wrap;html=1;labelBackgroundColor=none;fontSize=16;strokeColor=#B3B3B3;strokeWidth=0.5;fillColor=#f5f5f5;fontColor=#333333;" vertex="1" parent="ggPtCmF2vx0LdzmDwPyb-32">
          <mxGeometry x="4" y="3" width="5" height="5" as="geometry" />
        </mxCell>
        <mxCell id="ggPtCmF2vx0LdzmDwPyb-36" value="" style="rounded=0;whiteSpace=wrap;html=1;labelBackgroundColor=none;fontSize=16;strokeColor=#B3B3B3;strokeWidth=0.5;fillColor=#FFFFFF;" vertex="1" parent="ggPtCmF2vx0LdzmDwPyb-32">
          <mxGeometry x="4" y="14" width="5" height="5" as="geometry" />
        </mxCell>
        <mxCell id="ggPtCmF2vx0LdzmDwPyb-37" value="CN6" style="text;html=1;strokeColor=none;fillColor=none;align=center;verticalAlign=middle;whiteSpace=wrap;rounded=0;fontColor=#4D4D4D;" vertex="1" parent="1">
          <mxGeometry x="30.50000000000003" y="1198.26" width="30" height="20" as="geometry" />
        </mxCell>
        <mxCell id="ggPtCmF2vx0LdzmDwPyb-38" value="CN1" style="text;html=1;strokeColor=none;fillColor=none;align=center;verticalAlign=middle;whiteSpace=wrap;rounded=0;fontColor=#4D4D4D;" vertex="1" parent="1">
          <mxGeometry x="315" y="1008.01" width="30" height="20" as="geometry" />
        </mxCell>
        <mxCell id="ggPtCmF2vx0LdzmDwPyb-39" value="CN5" style="text;html=1;strokeColor=none;fillColor=none;align=center;verticalAlign=middle;whiteSpace=wrap;rounded=0;fontColor=#4D4D4D;" vertex="1" parent="1">
          <mxGeometry x="-154.99999999999997" y="1038.01" width="30" height="20" as="geometry" />
        </mxCell>
        <mxCell id="ggPtCmF2vx0LdzmDwPyb-84" value="" style="group" vertex="1" connectable="0" parent="1">
          <mxGeometry x="350" y="990.0000000000002" width="26" height="11" as="geometry" />
        </mxCell>
        <mxCell id="ggPtCmF2vx0LdzmDwPyb-81" value="" style="rounded=1;whiteSpace=wrap;html=1;labelBackgroundColor=none;fontSize=16;fontColor=#000000;strokeColor=default;strokeWidth=1;fillColor=#4D4D4D;gradientColor=none;arcSize=22;" vertex="1" parent="ggPtCmF2vx0LdzmDwPyb-84">
          <mxGeometry x="13" width="13" height="11" as="geometry" />
        </mxCell>
        <mxCell id="ggPtCmF2vx0LdzmDwPyb-83" value="" style="rounded=0;whiteSpace=wrap;html=1;labelBackgroundColor=none;fontSize=16;strokeColor=#B3B3B3;strokeWidth=0.5;fillColor=#FFFFFF;" vertex="1" parent="ggPtCmF2vx0LdzmDwPyb-84">
          <mxGeometry x="17" y="3" width="5" height="5" as="geometry" />
        </mxCell>
        <mxCell id="ggPtCmF2vx0LdzmDwPyb-80" value="" style="rounded=1;whiteSpace=wrap;html=1;labelBackgroundColor=none;fontSize=16;fontColor=#000000;strokeColor=default;strokeWidth=1;fillColor=#4D4D4D;gradientColor=none;arcSize=22;" vertex="1" parent="ggPtCmF2vx0LdzmDwPyb-84">
          <mxGeometry width="13" height="11" as="geometry" />
        </mxCell>
        <mxCell id="ggPtCmF2vx0LdzmDwPyb-82" value="" style="rounded=0;whiteSpace=wrap;html=1;labelBackgroundColor=none;fontSize=16;strokeColor=#B3B3B3;strokeWidth=0.5;fillColor=#f5f5f5;fontColor=#333333;" vertex="1" parent="ggPtCmF2vx0LdzmDwPyb-84">
          <mxGeometry x="4" y="3" width="5" height="5" as="geometry" />
        </mxCell>
        <mxCell id="ggPtCmF2vx0LdzmDwPyb-85" value="FAN power" style="text;html=1;strokeColor=none;fillColor=none;align=center;verticalAlign=middle;whiteSpace=wrap;rounded=0;fontColor=#4D4D4D;" vertex="1" parent="1">
          <mxGeometry x="325.5" y="971.26" width="75" height="20" as="geometry" />
        </mxCell>
        <mxCell id="SrjAT_W00otDU3puSz9i-1" value="" style="rounded=0;whiteSpace=wrap;html=1;strokeColor=#4D4D4D;fontColor=#4D4D4D;fillColor=#4D4D4D;" vertex="1" parent="1">
          <mxGeometry y="1301.26" width="40" height="8.74" as="geometry" />
        </mxCell>
        <mxCell id="SrjAT_W00otDU3puSz9i-2" value="" style="rounded=0;whiteSpace=wrap;html=1;strokeColor=#4D4D4D;fontColor=#4D4D4D;fillColor=#4D4D4D;" vertex="1" parent="1">
          <mxGeometry x="-160" y="1301.26" width="40" height="8.74" as="geometry" />
        </mxCell>
        <mxCell id="twVZvtrfMz3EbH4kBOd9-113" value="" style="group" connectable="0" vertex="1" parent="1">
          <mxGeometry x="-120" y="1171" width="25" height="49" as="geometry" />
        </mxCell>
        <mxCell id="twVZvtrfMz3EbH4kBOd9-72" value="" style="group;fontSize=15;strokeWidth=1;" connectable="0" vertex="1" parent="twVZvtrfMz3EbH4kBOd9-113">
          <mxGeometry width="25" height="6.7586206896551735" as="geometry" />
        </mxCell>
        <mxCell id="twVZvtrfMz3EbH4kBOd9-19" value="" style="rounded=0;whiteSpace=wrap;html=1;strokeColor=#000000;fillColor=#666666;container=0;fontSize=15;strokeWidth=1;" vertex="1" parent="twVZvtrfMz3EbH4kBOd9-72">
          <mxGeometry y="0.16220689655172416" width="6.82" height="6.434206896551725" as="geometry" />
        </mxCell>
        <mxCell id="twVZvtrfMz3EbH4kBOd9-21" value="" style="rounded=0;whiteSpace=wrap;html=1;fillColor=#CCCCCC;container=0;fontSize=15;strokeWidth=1;" vertex="1" parent="twVZvtrfMz3EbH4kBOd9-72">
          <mxGeometry x="7.159090909090921" y="0.16091954022977387" width="9.090909090909095" height="6.436781609195427" as="geometry" />
        </mxCell>
        <mxCell id="twVZvtrfMz3EbH4kBOd9-24" value="" style="endArrow=none;html=1;rounded=0;exitX=0.75;exitY=0;exitDx=0;exitDy=0;entryX=0.75;entryY=1;entryDx=0;entryDy=0;fontSize=15;strokeWidth=1;" edge="1" parent="twVZvtrfMz3EbH4kBOd9-72" source="twVZvtrfMz3EbH4kBOd9-21" target="twVZvtrfMz3EbH4kBOd9-21">
          <mxGeometry width="50" height="50" relative="1" as="geometry">
            <mxPoint x="19.318181818181827" y="16.57793103448281" as="sourcePoint" />
            <mxPoint x="25.000000000000018" y="8.531954022988469" as="targetPoint" />
          </mxGeometry>
        </mxCell>
        <mxCell id="twVZvtrfMz3EbH4kBOd9-26" value="" style="endArrow=none;html=1;rounded=0;exitX=0.25;exitY=0;exitDx=0;exitDy=0;entryX=0.25;entryY=1;entryDx=0;entryDy=0;fontSize=15;strokeWidth=1;" edge="1" parent="twVZvtrfMz3EbH4kBOd9-72" source="twVZvtrfMz3EbH4kBOd9-21" target="twVZvtrfMz3EbH4kBOd9-21">
          <mxGeometry width="50" height="50" relative="1" as="geometry">
            <mxPoint x="15.113636363636374" y="1.773333333333295" as="sourcePoint" />
            <mxPoint x="15.113636363636374" y="8.210114942528724" as="targetPoint" />
          </mxGeometry>
        </mxCell>
        <mxCell id="twVZvtrfMz3EbH4kBOd9-29" value="" style="rounded=0;whiteSpace=wrap;html=1;fillColor=#666666;container=0;fontSize=15;strokeWidth=1;" vertex="1" parent="twVZvtrfMz3EbH4kBOd9-72">
          <mxGeometry x="9.431818181818189" y="0.16091954022977387" width="4.545454545454548" height="6.436781609195427" as="geometry" />
        </mxCell>
        <mxCell id="twVZvtrfMz3EbH4kBOd9-31" value="" style="rounded=0;whiteSpace=wrap;html=1;fillColor=#1A1A1A;container=0;fontSize=15;strokeWidth=1;" vertex="1" parent="twVZvtrfMz3EbH4kBOd9-72">
          <mxGeometry x="16.36363636363636" width="8.63636363636364" height="6.758620689655198" as="geometry" />
        </mxCell>
        <mxCell id="twVZvtrfMz3EbH4kBOd9-30" value="" style="rounded=0;whiteSpace=wrap;html=1;strokeColor=#FFFF66;fillColor=#FFFF00;container=0;fontSize=15;strokeWidth=1;" vertex="1" parent="twVZvtrfMz3EbH4kBOd9-72">
          <mxGeometry x="16.81818181818183" y="0.16091954022977387" width="7.613636363636367" height="6.436781609195427" as="geometry" />
        </mxCell>
        <mxCell id="twVZvtrfMz3EbH4kBOd9-73" value="" style="group;fontSize=15;strokeWidth=1;" connectable="0" vertex="1" parent="twVZvtrfMz3EbH4kBOd9-113">
          <mxGeometry y="8.448275862068966" width="25" height="6.7586206896551735" as="geometry" />
        </mxCell>
        <mxCell id="twVZvtrfMz3EbH4kBOd9-74" value="" style="rounded=0;whiteSpace=wrap;html=1;strokeColor=#000000;fillColor=#666666;container=0;fontSize=15;strokeWidth=1;" vertex="1" parent="twVZvtrfMz3EbH4kBOd9-73">
          <mxGeometry y="0.16220689655172416" width="6.82" height="6.434206896551725" as="geometry" />
        </mxCell>
        <mxCell id="twVZvtrfMz3EbH4kBOd9-75" value="" style="rounded=0;whiteSpace=wrap;html=1;fillColor=#CCCCCC;container=0;fontSize=15;strokeWidth=1;" vertex="1" parent="twVZvtrfMz3EbH4kBOd9-73">
          <mxGeometry x="7.159090909090921" y="0.16091954022977387" width="9.090909090909095" height="6.436781609195427" as="geometry" />
        </mxCell>
        <mxCell id="twVZvtrfMz3EbH4kBOd9-76" value="" style="endArrow=none;html=1;rounded=0;exitX=0.75;exitY=0;exitDx=0;exitDy=0;entryX=0.75;entryY=1;entryDx=0;entryDy=0;fontSize=15;strokeWidth=1;" edge="1" parent="twVZvtrfMz3EbH4kBOd9-73" source="twVZvtrfMz3EbH4kBOd9-75" target="twVZvtrfMz3EbH4kBOd9-75">
          <mxGeometry width="50" height="50" relative="1" as="geometry">
            <mxPoint x="19.318181818181827" y="16.57793103448281" as="sourcePoint" />
            <mxPoint x="25.000000000000018" y="8.531954022988469" as="targetPoint" />
          </mxGeometry>
        </mxCell>
        <mxCell id="twVZvtrfMz3EbH4kBOd9-77" value="" style="endArrow=none;html=1;rounded=0;exitX=0.25;exitY=0;exitDx=0;exitDy=0;entryX=0.25;entryY=1;entryDx=0;entryDy=0;fontSize=15;strokeWidth=1;" edge="1" parent="twVZvtrfMz3EbH4kBOd9-73" source="twVZvtrfMz3EbH4kBOd9-75" target="twVZvtrfMz3EbH4kBOd9-75">
          <mxGeometry width="50" height="50" relative="1" as="geometry">
            <mxPoint x="15.113636363636374" y="1.773333333333295" as="sourcePoint" />
            <mxPoint x="15.113636363636374" y="8.210114942528724" as="targetPoint" />
          </mxGeometry>
        </mxCell>
        <mxCell id="twVZvtrfMz3EbH4kBOd9-78" value="" style="rounded=0;whiteSpace=wrap;html=1;fillColor=#666666;container=0;fontSize=15;strokeWidth=1;" vertex="1" parent="twVZvtrfMz3EbH4kBOd9-73">
          <mxGeometry x="9.431818181818189" y="0.16091954022977387" width="4.545454545454548" height="6.436781609195427" as="geometry" />
        </mxCell>
        <mxCell id="twVZvtrfMz3EbH4kBOd9-79" value="" style="rounded=0;whiteSpace=wrap;html=1;fillColor=#1A1A1A;container=0;fontSize=15;strokeWidth=1;" vertex="1" parent="twVZvtrfMz3EbH4kBOd9-73">
          <mxGeometry x="16.36363636363636" width="8.63636363636364" height="6.758620689655198" as="geometry" />
        </mxCell>
        <mxCell id="twVZvtrfMz3EbH4kBOd9-80" value="" style="rounded=0;whiteSpace=wrap;html=1;strokeColor=#FFFF66;fillColor=#FFFF00;container=0;fontSize=15;strokeWidth=1;" vertex="1" parent="twVZvtrfMz3EbH4kBOd9-73">
          <mxGeometry x="16.81818181818183" y="0.16091954022977387" width="7.613636363636367" height="6.436781609195427" as="geometry" />
        </mxCell>
        <mxCell id="twVZvtrfMz3EbH4kBOd9-81" value="" style="group;fontSize=15;strokeWidth=1;" connectable="0" vertex="1" parent="twVZvtrfMz3EbH4kBOd9-113">
          <mxGeometry y="16.896551724137932" width="25" height="6.7586206896551735" as="geometry" />
        </mxCell>
        <mxCell id="twVZvtrfMz3EbH4kBOd9-82" value="" style="rounded=0;whiteSpace=wrap;html=1;strokeColor=#000000;fillColor=#666666;container=0;fontSize=15;strokeWidth=1;" vertex="1" parent="twVZvtrfMz3EbH4kBOd9-81">
          <mxGeometry y="0.16220689655172416" width="6.82" height="6.434206896551725" as="geometry" />
        </mxCell>
        <mxCell id="twVZvtrfMz3EbH4kBOd9-83" value="" style="rounded=0;whiteSpace=wrap;html=1;fillColor=#CCCCCC;container=0;fontSize=15;strokeWidth=1;" vertex="1" parent="twVZvtrfMz3EbH4kBOd9-81">
          <mxGeometry x="7.159090909090921" y="0.16091954022977387" width="9.090909090909095" height="6.436781609195427" as="geometry" />
        </mxCell>
        <mxCell id="twVZvtrfMz3EbH4kBOd9-84" value="" style="endArrow=none;html=1;rounded=0;exitX=0.75;exitY=0;exitDx=0;exitDy=0;entryX=0.75;entryY=1;entryDx=0;entryDy=0;fontSize=15;strokeWidth=1;" edge="1" parent="twVZvtrfMz3EbH4kBOd9-81" source="twVZvtrfMz3EbH4kBOd9-83" target="twVZvtrfMz3EbH4kBOd9-83">
          <mxGeometry width="50" height="50" relative="1" as="geometry">
            <mxPoint x="19.318181818181827" y="16.57793103448281" as="sourcePoint" />
            <mxPoint x="25.000000000000018" y="8.531954022988469" as="targetPoint" />
          </mxGeometry>
        </mxCell>
        <mxCell id="twVZvtrfMz3EbH4kBOd9-85" value="" style="endArrow=none;html=1;rounded=0;exitX=0.25;exitY=0;exitDx=0;exitDy=0;entryX=0.25;entryY=1;entryDx=0;entryDy=0;fontSize=15;strokeWidth=1;" edge="1" parent="twVZvtrfMz3EbH4kBOd9-81" source="twVZvtrfMz3EbH4kBOd9-83" target="twVZvtrfMz3EbH4kBOd9-83">
          <mxGeometry width="50" height="50" relative="1" as="geometry">
            <mxPoint x="15.113636363636374" y="1.773333333333295" as="sourcePoint" />
            <mxPoint x="15.113636363636374" y="8.210114942528724" as="targetPoint" />
          </mxGeometry>
        </mxCell>
        <mxCell id="twVZvtrfMz3EbH4kBOd9-86" value="" style="rounded=0;whiteSpace=wrap;html=1;fillColor=#666666;container=0;fontSize=15;strokeWidth=1;" vertex="1" parent="twVZvtrfMz3EbH4kBOd9-81">
          <mxGeometry x="9.431818181818189" y="0.16091954022977387" width="4.545454545454548" height="6.436781609195427" as="geometry" />
        </mxCell>
        <mxCell id="twVZvtrfMz3EbH4kBOd9-87" value="" style="rounded=0;whiteSpace=wrap;html=1;fillColor=#1A1A1A;container=0;fontSize=15;strokeWidth=1;" vertex="1" parent="twVZvtrfMz3EbH4kBOd9-81">
          <mxGeometry x="16.36363636363636" width="8.63636363636364" height="6.758620689655198" as="geometry" />
        </mxCell>
        <mxCell id="twVZvtrfMz3EbH4kBOd9-88" value="" style="rounded=0;whiteSpace=wrap;html=1;strokeColor=#FFFF66;fillColor=#FFFF00;container=0;fontSize=15;strokeWidth=1;" vertex="1" parent="twVZvtrfMz3EbH4kBOd9-81">
          <mxGeometry x="16.81818181818183" y="0.16091954022977387" width="7.613636363636367" height="6.436781609195427" as="geometry" />
        </mxCell>
        <mxCell id="twVZvtrfMz3EbH4kBOd9-89" value="" style="group;fontSize=15;strokeWidth=1;" connectable="0" vertex="1" parent="twVZvtrfMz3EbH4kBOd9-113">
          <mxGeometry y="25.3448275862069" width="25" height="6.7586206896551735" as="geometry" />
        </mxCell>
        <mxCell id="twVZvtrfMz3EbH4kBOd9-90" value="" style="rounded=0;whiteSpace=wrap;html=1;strokeColor=#000000;fillColor=#666666;container=0;fontSize=15;strokeWidth=1;" vertex="1" parent="twVZvtrfMz3EbH4kBOd9-89">
          <mxGeometry y="0.16220689655172416" width="6.82" height="6.434206896551725" as="geometry" />
        </mxCell>
        <mxCell id="twVZvtrfMz3EbH4kBOd9-91" value="" style="rounded=0;whiteSpace=wrap;html=1;fillColor=#CCCCCC;container=0;fontSize=15;strokeWidth=1;" vertex="1" parent="twVZvtrfMz3EbH4kBOd9-89">
          <mxGeometry x="7.159090909090921" y="0.16091954022977387" width="9.090909090909095" height="6.436781609195427" as="geometry" />
        </mxCell>
        <mxCell id="twVZvtrfMz3EbH4kBOd9-92" value="" style="endArrow=none;html=1;rounded=0;exitX=0.75;exitY=0;exitDx=0;exitDy=0;entryX=0.75;entryY=1;entryDx=0;entryDy=0;fontSize=15;strokeWidth=1;" edge="1" parent="twVZvtrfMz3EbH4kBOd9-89" source="twVZvtrfMz3EbH4kBOd9-91" target="twVZvtrfMz3EbH4kBOd9-91">
          <mxGeometry width="50" height="50" relative="1" as="geometry">
            <mxPoint x="19.318181818181827" y="16.57793103448281" as="sourcePoint" />
            <mxPoint x="25.000000000000018" y="8.531954022988469" as="targetPoint" />
          </mxGeometry>
        </mxCell>
        <mxCell id="twVZvtrfMz3EbH4kBOd9-93" value="" style="endArrow=none;html=1;rounded=0;exitX=0.25;exitY=0;exitDx=0;exitDy=0;entryX=0.25;entryY=1;entryDx=0;entryDy=0;fontSize=15;strokeWidth=1;" edge="1" parent="twVZvtrfMz3EbH4kBOd9-89" source="twVZvtrfMz3EbH4kBOd9-91" target="twVZvtrfMz3EbH4kBOd9-91">
          <mxGeometry width="50" height="50" relative="1" as="geometry">
            <mxPoint x="15.113636363636374" y="1.773333333333295" as="sourcePoint" />
            <mxPoint x="15.113636363636374" y="8.210114942528724" as="targetPoint" />
          </mxGeometry>
        </mxCell>
        <mxCell id="twVZvtrfMz3EbH4kBOd9-94" value="" style="rounded=0;whiteSpace=wrap;html=1;fillColor=#666666;container=0;fontSize=15;strokeWidth=1;" vertex="1" parent="twVZvtrfMz3EbH4kBOd9-89">
          <mxGeometry x="9.431818181818189" y="0.16091954022977387" width="4.545454545454548" height="6.436781609195427" as="geometry" />
        </mxCell>
        <mxCell id="twVZvtrfMz3EbH4kBOd9-95" value="" style="rounded=0;whiteSpace=wrap;html=1;fillColor=#1A1A1A;container=0;fontSize=15;strokeWidth=1;" vertex="1" parent="twVZvtrfMz3EbH4kBOd9-89">
          <mxGeometry x="16.36363636363636" width="8.63636363636364" height="6.758620689655198" as="geometry" />
        </mxCell>
        <mxCell id="twVZvtrfMz3EbH4kBOd9-96" value="" style="rounded=0;whiteSpace=wrap;html=1;strokeColor=#FFFF66;fillColor=#FFFF00;container=0;fontSize=15;strokeWidth=1;" vertex="1" parent="twVZvtrfMz3EbH4kBOd9-89">
          <mxGeometry x="16.81818181818183" y="0.16091954022977387" width="7.613636363636367" height="6.436781609195427" as="geometry" />
        </mxCell>
        <mxCell id="twVZvtrfMz3EbH4kBOd9-97" value="" style="group;fontSize=15;strokeWidth=1;" connectable="0" vertex="1" parent="twVZvtrfMz3EbH4kBOd9-113">
          <mxGeometry y="33.793103448275865" width="25" height="6.7586206896551735" as="geometry" />
        </mxCell>
        <mxCell id="twVZvtrfMz3EbH4kBOd9-98" value="" style="rounded=0;whiteSpace=wrap;html=1;strokeColor=#000000;fillColor=#666666;container=0;fontSize=15;strokeWidth=1;" vertex="1" parent="twVZvtrfMz3EbH4kBOd9-97">
          <mxGeometry y="0.16220689655172416" width="6.82" height="6.434206896551725" as="geometry" />
        </mxCell>
        <mxCell id="twVZvtrfMz3EbH4kBOd9-99" value="" style="rounded=0;whiteSpace=wrap;html=1;fillColor=#CCCCCC;container=0;fontSize=15;strokeWidth=1;" vertex="1" parent="twVZvtrfMz3EbH4kBOd9-97">
          <mxGeometry x="7.159090909090921" y="0.16091954022977387" width="9.090909090909095" height="6.436781609195427" as="geometry" />
        </mxCell>
        <mxCell id="twVZvtrfMz3EbH4kBOd9-100" value="" style="endArrow=none;html=1;rounded=0;exitX=0.75;exitY=0;exitDx=0;exitDy=0;entryX=0.75;entryY=1;entryDx=0;entryDy=0;fontSize=15;strokeWidth=1;" edge="1" parent="twVZvtrfMz3EbH4kBOd9-97" source="twVZvtrfMz3EbH4kBOd9-99" target="twVZvtrfMz3EbH4kBOd9-99">
          <mxGeometry width="50" height="50" relative="1" as="geometry">
            <mxPoint x="19.318181818181827" y="16.57793103448281" as="sourcePoint" />
            <mxPoint x="25.000000000000018" y="8.531954022988469" as="targetPoint" />
          </mxGeometry>
        </mxCell>
        <mxCell id="twVZvtrfMz3EbH4kBOd9-101" value="" style="endArrow=none;html=1;rounded=0;exitX=0.25;exitY=0;exitDx=0;exitDy=0;entryX=0.25;entryY=1;entryDx=0;entryDy=0;fontSize=15;strokeWidth=1;" edge="1" parent="twVZvtrfMz3EbH4kBOd9-97" source="twVZvtrfMz3EbH4kBOd9-99" target="twVZvtrfMz3EbH4kBOd9-99">
          <mxGeometry width="50" height="50" relative="1" as="geometry">
            <mxPoint x="15.113636363636374" y="1.773333333333295" as="sourcePoint" />
            <mxPoint x="15.113636363636374" y="8.210114942528724" as="targetPoint" />
          </mxGeometry>
        </mxCell>
        <mxCell id="twVZvtrfMz3EbH4kBOd9-102" value="" style="rounded=0;whiteSpace=wrap;html=1;fillColor=#666666;container=0;fontSize=15;strokeWidth=1;" vertex="1" parent="twVZvtrfMz3EbH4kBOd9-97">
          <mxGeometry x="9.431818181818189" y="0.16091954022977387" width="4.545454545454548" height="6.436781609195427" as="geometry" />
        </mxCell>
        <mxCell id="twVZvtrfMz3EbH4kBOd9-103" value="" style="rounded=0;whiteSpace=wrap;html=1;fillColor=#1A1A1A;container=0;fontSize=15;strokeWidth=1;" vertex="1" parent="twVZvtrfMz3EbH4kBOd9-97">
          <mxGeometry x="16.36363636363636" width="8.63636363636364" height="6.758620689655198" as="geometry" />
        </mxCell>
        <mxCell id="twVZvtrfMz3EbH4kBOd9-104" value="" style="rounded=0;whiteSpace=wrap;html=1;strokeColor=#FFFF66;fillColor=#FFFF00;container=0;fontSize=15;strokeWidth=1;" vertex="1" parent="twVZvtrfMz3EbH4kBOd9-97">
          <mxGeometry x="16.81818181818183" y="0.16091954022977387" width="7.613636363636367" height="6.436781609195427" as="geometry" />
        </mxCell>
        <mxCell id="twVZvtrfMz3EbH4kBOd9-105" value="" style="group;fontSize=15;strokeWidth=1;" connectable="0" vertex="1" parent="twVZvtrfMz3EbH4kBOd9-113">
          <mxGeometry y="42.24137931034483" width="25" height="6.7586206896551735" as="geometry" />
        </mxCell>
        <mxCell id="twVZvtrfMz3EbH4kBOd9-106" value="" style="rounded=0;whiteSpace=wrap;html=1;strokeColor=#000000;fillColor=#666666;container=0;fontSize=15;strokeWidth=1;" vertex="1" parent="twVZvtrfMz3EbH4kBOd9-105">
          <mxGeometry y="0.16220689655172416" width="6.82" height="6.434206896551725" as="geometry" />
        </mxCell>
        <mxCell id="twVZvtrfMz3EbH4kBOd9-107" value="" style="rounded=0;whiteSpace=wrap;html=1;fillColor=#CCCCCC;container=0;fontSize=15;strokeWidth=1;" vertex="1" parent="twVZvtrfMz3EbH4kBOd9-105">
          <mxGeometry x="7.159090909090921" y="0.16091954022977387" width="9.090909090909095" height="6.436781609195427" as="geometry" />
        </mxCell>
        <mxCell id="twVZvtrfMz3EbH4kBOd9-108" value="" style="endArrow=none;html=1;rounded=0;exitX=0.75;exitY=0;exitDx=0;exitDy=0;entryX=0.75;entryY=1;entryDx=0;entryDy=0;fontSize=15;strokeWidth=1;" edge="1" parent="twVZvtrfMz3EbH4kBOd9-105" source="twVZvtrfMz3EbH4kBOd9-107" target="twVZvtrfMz3EbH4kBOd9-107">
          <mxGeometry width="50" height="50" relative="1" as="geometry">
            <mxPoint x="19.318181818181827" y="16.57793103448281" as="sourcePoint" />
            <mxPoint x="25.000000000000018" y="8.531954022988469" as="targetPoint" />
          </mxGeometry>
        </mxCell>
        <mxCell id="twVZvtrfMz3EbH4kBOd9-109" value="" style="endArrow=none;html=1;rounded=0;exitX=0.25;exitY=0;exitDx=0;exitDy=0;entryX=0.25;entryY=1;entryDx=0;entryDy=0;fontSize=15;strokeWidth=1;" edge="1" parent="twVZvtrfMz3EbH4kBOd9-105" source="twVZvtrfMz3EbH4kBOd9-107" target="twVZvtrfMz3EbH4kBOd9-107">
          <mxGeometry width="50" height="50" relative="1" as="geometry">
            <mxPoint x="15.113636363636374" y="1.773333333333295" as="sourcePoint" />
            <mxPoint x="15.113636363636374" y="8.210114942528724" as="targetPoint" />
          </mxGeometry>
        </mxCell>
        <mxCell id="twVZvtrfMz3EbH4kBOd9-110" value="" style="rounded=0;whiteSpace=wrap;html=1;fillColor=#666666;container=0;fontSize=15;strokeWidth=1;" vertex="1" parent="twVZvtrfMz3EbH4kBOd9-105">
          <mxGeometry x="9.431818181818189" y="0.16091954022977387" width="4.545454545454548" height="6.436781609195427" as="geometry" />
        </mxCell>
        <mxCell id="twVZvtrfMz3EbH4kBOd9-111" value="" style="rounded=0;whiteSpace=wrap;html=1;fillColor=#1A1A1A;container=0;fontSize=15;strokeWidth=1;" vertex="1" parent="twVZvtrfMz3EbH4kBOd9-105">
          <mxGeometry x="16.36363636363636" width="8.63636363636364" height="6.758620689655198" as="geometry" />
        </mxCell>
        <mxCell id="twVZvtrfMz3EbH4kBOd9-112" value="" style="rounded=0;whiteSpace=wrap;html=1;strokeColor=#FFFF66;fillColor=#FFFF00;container=0;fontSize=15;strokeWidth=1;" vertex="1" parent="twVZvtrfMz3EbH4kBOd9-105">
          <mxGeometry x="16.81818181818183" y="0.16091954022977387" width="7.613636363636367" height="6.436781609195427" as="geometry" />
        </mxCell>
      </root>
    </mxGraphModel>
  </diagram>
</mxfile>
